%MOIN*%
%OFA0B0*%
%FSLAX36Y36*%
%IPPOS*%
%LPD*%
%ADD10C,0*%
D10*
X001299212Y000746467D02*
X001299212Y000746467D01*
X001299212Y000436368D01*
X001299091Y000433279D01*
X001298727Y000430209D01*
X001298124Y000427177D01*
X001297285Y000424202D01*
X001296215Y000421302D01*
X001294921Y000418494D01*
X001293411Y000415797D01*
X001291693Y000413227D01*
X001289779Y000410799D01*
X001287681Y000408529D01*
X001285411Y000406431D01*
X001282983Y000404517D01*
X001280413Y000402799D01*
X001277716Y000401289D01*
X001274908Y000399995D01*
X001272008Y000398925D01*
X001269033Y000398086D01*
X001266001Y000397482D01*
X001262931Y000397119D01*
X001259842Y000396998D01*
X001256753Y000397119D01*
X001253683Y000397482D01*
X001250651Y000398086D01*
X001247676Y000398925D01*
X001244776Y000399995D01*
X001241968Y000401289D01*
X001239271Y000402799D01*
X001236701Y000404517D01*
X001234273Y000406431D01*
X001232003Y000408529D01*
X001229905Y000410799D01*
X001227991Y000413227D01*
X001226274Y000415797D01*
X001224763Y000418494D01*
X001223469Y000421302D01*
X001222399Y000424202D01*
X001221560Y000427177D01*
X001220957Y000430209D01*
X001220593Y000433279D01*
X001220472Y000436368D01*
X001220472Y000746467D01*
X001220593Y000749555D01*
X001220957Y000752625D01*
X001221560Y000755657D01*
X001222399Y000758633D01*
X001223469Y000761533D01*
X001224763Y000764340D01*
X001226274Y000767037D01*
X001227991Y000769608D01*
X001229905Y000772035D01*
X001232003Y000774305D01*
X001234273Y000776404D01*
X001236701Y000778318D01*
X001239271Y000780035D01*
X001241968Y000781546D01*
X001244776Y000782840D01*
X001247676Y000783910D01*
X001250651Y000784749D01*
X001253683Y000785352D01*
X001256753Y000785715D01*
X001259842Y000785837D01*
X001262931Y000785715D01*
X001266001Y000785352D01*
X001269033Y000784749D01*
X001272008Y000783910D01*
X001274908Y000782840D01*
X001277716Y000781546D01*
X001280413Y000780035D01*
X001282983Y000778318D01*
X001285411Y000776404D01*
X001287681Y000774305D01*
X001289779Y000772035D01*
X001291693Y000769608D01*
X001293411Y000767037D01*
X001294921Y000764340D01*
X001296215Y000761533D01*
X001297285Y000758633D01*
X001298124Y000755657D01*
X001298727Y000752625D01*
X001299091Y000749555D01*
X001299212Y000746467D01*
X001220472Y002285433D02*
X001220472Y002285433D01*
X001035433Y002440944D01*
X000976885Y002440944D01*
X000976885Y002440944D01*
X000970726Y002441429D01*
X000964719Y002442871D01*
X000959011Y002445235D01*
X000953744Y002448463D01*
X000949046Y002452476D01*
X000945034Y002457173D01*
X000941806Y002462441D01*
X000939442Y002468148D01*
X000938000Y002474156D01*
X000937515Y002480314D01*
X000938000Y002486473D01*
X000939442Y002492480D01*
X000941806Y002498188D01*
X000945034Y002503456D01*
X000949046Y002508153D01*
X000953744Y002512166D01*
X000959011Y002515393D01*
X000964719Y002517758D01*
X000970726Y002519200D01*
X000976885Y002519685D01*
X001035433Y002519685D01*
X001220472Y002677165D01*
X001220472Y002723901D01*
X001220957Y002730060D01*
X001222399Y002736067D01*
X001224763Y002741775D01*
X001227991Y002747043D01*
X001232003Y002751740D01*
X001236701Y002755753D01*
X001241968Y002758980D01*
X001247676Y002761345D01*
X001253683Y002762787D01*
X001259842Y002763272D01*
X001266001Y002762787D01*
X001272008Y002761345D01*
X001277716Y002758980D01*
X001282983Y002755753D01*
X001287681Y002751740D01*
X001291693Y002747043D01*
X001294921Y002741775D01*
X001297285Y002736067D01*
X001298727Y002730060D01*
X001299212Y002723901D01*
X001299212Y002723901D01*
X001299212Y002519685D01*
X001337018Y002519685D01*
X001343177Y002519200D01*
X001349184Y002517758D01*
X001354891Y002515393D01*
X001360159Y002512166D01*
X001364857Y002508153D01*
X001368869Y002503456D01*
X001372097Y002498188D01*
X001374461Y002492480D01*
X001375903Y002486473D01*
X001376388Y002480314D01*
X001375903Y002474156D01*
X001374461Y002468148D01*
X001372097Y002462441D01*
X001368869Y002457173D01*
X001364857Y002452476D01*
X001360159Y002448463D01*
X001354891Y002445235D01*
X001349184Y002442871D01*
X001343177Y002441429D01*
X001337018Y002440944D01*
X001337018Y002440944D01*
X001299212Y002440944D01*
X001299212Y002245658D01*
X001299091Y002242569D01*
X001298727Y002239500D01*
X001298124Y002236468D01*
X001297285Y002233492D01*
X001296215Y002230592D01*
X001294921Y002227785D01*
X001293411Y002225088D01*
X001291693Y002222517D01*
X001289779Y002220090D01*
X001287681Y002217820D01*
X001285411Y002215721D01*
X001282983Y002213807D01*
X001280413Y002212090D01*
X001277716Y002210579D01*
X001274908Y002209285D01*
X001272008Y002208215D01*
X001269033Y002207376D01*
X001266001Y002206773D01*
X001262931Y002206410D01*
X001259842Y002206288D01*
X001256753Y002206410D01*
X001253683Y002206773D01*
X001250651Y002207376D01*
X001247676Y002208215D01*
X001244776Y002209285D01*
X001241968Y002210579D01*
X001239271Y002212090D01*
X001236701Y002213807D01*
X001234273Y002215721D01*
X001232003Y002217820D01*
X001229905Y002220090D01*
X001227991Y002222517D01*
X001226274Y002225088D01*
X001224763Y002227785D01*
X001223469Y002230592D01*
X001222399Y002233492D01*
X001221560Y002236468D01*
X001220957Y002239500D01*
X001220593Y002242569D01*
X001220472Y002245658D01*
X001220472Y002285433D01*
X001220472Y001025590D02*
X001220472Y001025590D01*
X001035433Y001181102D01*
X000976885Y001181102D01*
X000976885Y001181102D01*
X000970726Y001181587D01*
X000964719Y001183029D01*
X000959011Y001185393D01*
X000953744Y001188621D01*
X000949046Y001192633D01*
X000945034Y001197331D01*
X000941806Y001202598D01*
X000939442Y001208306D01*
X000938000Y001214313D01*
X000937515Y001220472D01*
X000938000Y001226631D01*
X000939442Y001232638D01*
X000941806Y001238346D01*
X000945034Y001243613D01*
X000949046Y001248311D01*
X000953744Y001252323D01*
X000959011Y001255551D01*
X000964719Y001257915D01*
X000970726Y001259357D01*
X000976885Y001259842D01*
X001035433Y001259842D01*
X001220472Y001417322D01*
X001220472Y001455128D01*
X001220593Y001458217D01*
X001220957Y001461287D01*
X001221560Y001464319D01*
X001222399Y001467294D01*
X001223469Y001470194D01*
X001224763Y001473002D01*
X001226274Y001475699D01*
X001227991Y001478269D01*
X001229905Y001480697D01*
X001232003Y001482967D01*
X001234273Y001485065D01*
X001236701Y001486979D01*
X001239271Y001488696D01*
X001241968Y001490207D01*
X001244776Y001491501D01*
X001247676Y001492571D01*
X001250651Y001493410D01*
X001253683Y001494013D01*
X001256753Y001494377D01*
X001259842Y001494498D01*
X001262931Y001494377D01*
X001266001Y001494013D01*
X001269033Y001493410D01*
X001272008Y001492571D01*
X001274908Y001491501D01*
X001277716Y001490207D01*
X001280413Y001488696D01*
X001282983Y001486979D01*
X001285411Y001485065D01*
X001287681Y001482967D01*
X001289779Y001480697D01*
X001291693Y001478269D01*
X001293411Y001475699D01*
X001294921Y001473002D01*
X001296215Y001470194D01*
X001297285Y001467294D01*
X001298124Y001464319D01*
X001298727Y001461287D01*
X001299091Y001458217D01*
X001299212Y001455128D01*
X001299212Y001259842D01*
X001376388Y001259842D01*
X001382547Y001259357D01*
X001388554Y001257915D01*
X001394261Y001255551D01*
X001399529Y001252323D01*
X001404227Y001248311D01*
X001408239Y001243613D01*
X001411467Y001238346D01*
X001413831Y001232638D01*
X001415273Y001226631D01*
X001415758Y001220472D01*
X001415273Y001214313D01*
X001413831Y001208306D01*
X001411467Y001202598D01*
X001408239Y001197331D01*
X001404227Y001192633D01*
X001399529Y001188621D01*
X001394261Y001185393D01*
X001388554Y001183029D01*
X001382547Y001181587D01*
X001376388Y001181102D01*
X001376388Y001181102D01*
X001299212Y001181102D01*
X001299212Y000985816D01*
X001299091Y000982727D01*
X001298727Y000979657D01*
X001298124Y000976625D01*
X001297285Y000973650D01*
X001296215Y000970750D01*
X001294921Y000967942D01*
X001293411Y000965245D01*
X001291693Y000962675D01*
X001289779Y000960247D01*
X001287681Y000957977D01*
X001285411Y000955879D01*
X001282983Y000953965D01*
X001280413Y000952247D01*
X001277716Y000950737D01*
X001274908Y000949443D01*
X001272008Y000948373D01*
X001269033Y000947534D01*
X001266001Y000946931D01*
X001262931Y000946567D01*
X001259842Y000946446D01*
X001256753Y000946567D01*
X001253683Y000946931D01*
X001250651Y000947534D01*
X001247676Y000948373D01*
X001244776Y000949443D01*
X001241968Y000950737D01*
X001239271Y000952247D01*
X001236701Y000953965D01*
X001234273Y000955879D01*
X001232003Y000957977D01*
X001229905Y000960247D01*
X001227991Y000962675D01*
X001226274Y000965245D01*
X001224763Y000967942D01*
X001223469Y000970750D01*
X001222399Y000973650D01*
X001221560Y000976625D01*
X001220957Y000979657D01*
X001220593Y000982727D01*
X001220472Y000985816D01*
X001220472Y001025590D01*
X002867260Y001181102D02*
X002867260Y001181102D01*
X002864171Y001181223D01*
X002861102Y001181587D01*
X002858070Y001182190D01*
X002855094Y001183029D01*
X002852194Y001184099D01*
X002849387Y001185393D01*
X002846690Y001186903D01*
X002844119Y001188621D01*
X002841692Y001190535D01*
X002839422Y001192633D01*
X002837323Y001194903D01*
X002835409Y001197331D01*
X002833692Y001199901D01*
X002832181Y001202598D01*
X002830887Y001205406D01*
X002829817Y001208306D01*
X002828978Y001211281D01*
X002828375Y001214313D01*
X002828012Y001217383D01*
X002827890Y001220472D01*
X002828012Y001223561D01*
X002828375Y001226631D01*
X002828978Y001229663D01*
X002829817Y001232638D01*
X002830887Y001235538D01*
X002832181Y001238346D01*
X002833692Y001241043D01*
X002835409Y001243613D01*
X002837323Y001246041D01*
X002839422Y001248311D01*
X002841692Y001250409D01*
X002844119Y001252323D01*
X002846690Y001254040D01*
X002849387Y001255551D01*
X002852194Y001256845D01*
X002855094Y001257915D01*
X002858070Y001258754D01*
X002861102Y001259357D01*
X002864171Y001259721D01*
X002867260Y001259842D01*
X003353211Y001259842D01*
X003356300Y001259721D01*
X003359370Y001259357D01*
X003362402Y001258754D01*
X003365377Y001257915D01*
X003368277Y001256845D01*
X003371085Y001255551D01*
X003373782Y001254040D01*
X003376352Y001252323D01*
X003378780Y001250409D01*
X003381050Y001248311D01*
X003383148Y001246041D01*
X003385062Y001243613D01*
X003386780Y001241043D01*
X003388290Y001238346D01*
X003389584Y001235538D01*
X003390654Y001232638D01*
X003391493Y001229663D01*
X003392096Y001226631D01*
X003392460Y001223561D01*
X003392581Y001220472D01*
X003392460Y001217383D01*
X003392096Y001214313D01*
X003391493Y001211281D01*
X003390654Y001208306D01*
X003389584Y001205406D01*
X003388290Y001202598D01*
X003386780Y001199901D01*
X003385062Y001197331D01*
X003383148Y001194903D01*
X003381050Y001192633D01*
X003378780Y001190535D01*
X003376352Y001188621D01*
X003373782Y001186903D01*
X003371085Y001185393D01*
X003368277Y001184099D01*
X003365377Y001183029D01*
X003362402Y001182190D01*
X003359370Y001181587D01*
X003356300Y001181223D01*
X003353211Y001181102D01*
X002867260Y001181102D01*
X002519685Y001463447D02*
X002519685Y001463447D01*
X002519806Y001466536D01*
X002520169Y001469606D01*
X002520772Y001472638D01*
X002521611Y001475613D01*
X002522681Y001478514D01*
X002523976Y001481321D01*
X002525486Y001484018D01*
X002527204Y001486588D01*
X002529117Y001489016D01*
X002531216Y001491286D01*
X002533486Y001493384D01*
X002535913Y001495298D01*
X002538484Y001497016D01*
X002541181Y001498526D01*
X002543988Y001499820D01*
X002546889Y001500890D01*
X002549864Y001501730D01*
X002552896Y001502333D01*
X002555966Y001502696D01*
X002559055Y001502817D01*
X002562144Y001502696D01*
X002565213Y001502333D01*
X002568245Y001501730D01*
X002571221Y001500890D01*
X002574121Y001499820D01*
X002576928Y001498526D01*
X002579625Y001497016D01*
X002582196Y001495298D01*
X002584623Y001493384D01*
X002586893Y001491286D01*
X002588992Y001489016D01*
X002590906Y001486588D01*
X002592623Y001484018D01*
X002594134Y001481321D01*
X002595428Y001478514D01*
X002596498Y001475613D01*
X002597337Y001472638D01*
X002597940Y001469606D01*
X002598303Y001466536D01*
X002598425Y001463447D01*
X002598425Y001259842D01*
X002644550Y001259842D01*
X002647639Y001259721D01*
X002650708Y001259357D01*
X002653740Y001258754D01*
X002656716Y001257915D01*
X002659616Y001256845D01*
X002662423Y001255551D01*
X002665120Y001254040D01*
X002667691Y001252323D01*
X002670118Y001250409D01*
X002672388Y001248311D01*
X002674487Y001246041D01*
X002676401Y001243613D01*
X002678118Y001241043D01*
X002679629Y001238346D01*
X002680923Y001235538D01*
X002681993Y001232638D01*
X002682832Y001229663D01*
X002683435Y001226631D01*
X002683798Y001223561D01*
X002683920Y001220472D01*
X002683798Y001217383D01*
X002683435Y001214313D01*
X002682832Y001211281D01*
X002681993Y001208306D01*
X002680923Y001205406D01*
X002679629Y001202598D01*
X002678118Y001199901D01*
X002676401Y001197331D01*
X002674487Y001194903D01*
X002672388Y001192633D01*
X002670118Y001190535D01*
X002667691Y001188621D01*
X002665120Y001186903D01*
X002662423Y001185393D01*
X002659616Y001184099D01*
X002656716Y001183029D01*
X002653740Y001182190D01*
X002650708Y001181587D01*
X002647639Y001181223D01*
X002644550Y001181102D01*
X002598425Y001181102D01*
X002598425Y000985816D01*
X002598303Y000982727D01*
X002597940Y000979657D01*
X002597337Y000976625D01*
X002596498Y000973650D01*
X002595428Y000970750D01*
X002594134Y000967942D01*
X002592623Y000965245D01*
X002590906Y000962675D01*
X002588992Y000960247D01*
X002586893Y000957977D01*
X002584623Y000955879D01*
X002582196Y000953965D01*
X002579625Y000952247D01*
X002576928Y000950737D01*
X002574121Y000949443D01*
X002571221Y000948373D01*
X002568245Y000947534D01*
X002565213Y000946931D01*
X002562144Y000946567D01*
X002559055Y000946446D01*
X002555966Y000946567D01*
X002552896Y000946931D01*
X002549864Y000947534D01*
X002546889Y000948373D01*
X002543988Y000949443D01*
X002541181Y000950737D01*
X002538484Y000952247D01*
X002535913Y000953965D01*
X002533486Y000955879D01*
X002531216Y000957977D01*
X002529117Y000960247D01*
X002527204Y000962675D01*
X002525486Y000965245D01*
X002523976Y000967942D01*
X002522681Y000970750D01*
X002521611Y000973650D01*
X002520772Y000976625D01*
X002520169Y000979657D01*
X002519806Y000982727D01*
X002519685Y000985816D01*
X002519685Y001025590D01*
X002334645Y001181102D01*
X002276709Y001181102D01*
X002273620Y001181223D01*
X002270550Y001181587D01*
X002267518Y001182190D01*
X002264543Y001183029D01*
X002261643Y001184099D01*
X002258836Y001185393D01*
X002256138Y001186903D01*
X002253568Y001188621D01*
X002251140Y001190535D01*
X002248870Y001192633D01*
X002246772Y001194903D01*
X002244858Y001197331D01*
X002243141Y001199901D01*
X002241630Y001202598D01*
X002240336Y001205406D01*
X002239266Y001208306D01*
X002238427Y001211281D01*
X002237824Y001214313D01*
X002237461Y001217383D01*
X002237339Y001220472D01*
X002237461Y001223561D01*
X002237824Y001226631D01*
X002238427Y001229663D01*
X002239266Y001232638D01*
X002240336Y001235538D01*
X002241630Y001238346D01*
X002243141Y001241043D01*
X002244858Y001243613D01*
X002246772Y001246041D01*
X002248870Y001248311D01*
X002251140Y001250409D01*
X002253568Y001252323D01*
X002256138Y001254040D01*
X002258836Y001255551D01*
X002261643Y001256845D01*
X002264543Y001257915D01*
X002267518Y001258754D01*
X002270550Y001259357D01*
X002273620Y001259721D01*
X002276709Y001259842D01*
X002334645Y001259842D01*
X002519685Y001417322D01*
X002519685Y001463447D01*
X002519685Y002014628D02*
X002519685Y002014628D01*
X002519806Y002017717D01*
X002520169Y002020787D01*
X002520772Y002023819D01*
X002521611Y002026794D01*
X002522681Y002029695D01*
X002523976Y002032502D01*
X002525486Y002035199D01*
X002527204Y002037770D01*
X002529117Y002040197D01*
X002531216Y002042467D01*
X002533486Y002044566D01*
X002535913Y002046479D01*
X002538484Y002048197D01*
X002541181Y002049707D01*
X002543988Y002051002D01*
X002546889Y002052072D01*
X002549864Y002052911D01*
X002552896Y002053514D01*
X002555966Y002053877D01*
X002559055Y002053998D01*
X002562144Y002053877D01*
X002565213Y002053514D01*
X002568245Y002052911D01*
X002571221Y002052072D01*
X002574121Y002051002D01*
X002576928Y002049707D01*
X002579625Y002048197D01*
X002582196Y002046479D01*
X002584623Y002044566D01*
X002586893Y002042467D01*
X002588992Y002040197D01*
X002590906Y002037770D01*
X002592623Y002035199D01*
X002594134Y002032502D01*
X002595428Y002029695D01*
X002596498Y002026794D01*
X002597337Y002023819D01*
X002597940Y002020787D01*
X002598303Y002017717D01*
X002598425Y002014628D01*
X002598425Y001686158D01*
X002598303Y001683069D01*
X002597940Y001679999D01*
X002597337Y001676967D01*
X002596498Y001673992D01*
X002595428Y001671092D01*
X002594134Y001668284D01*
X002592623Y001665587D01*
X002590906Y001663017D01*
X002588992Y001660589D01*
X002586893Y001658319D01*
X002584623Y001656221D01*
X002582196Y001654307D01*
X002579625Y001652590D01*
X002576928Y001651079D01*
X002574121Y001649785D01*
X002571221Y001648715D01*
X002568245Y001647876D01*
X002565213Y001647273D01*
X002562144Y001646909D01*
X002559055Y001646788D01*
X002555966Y001646909D01*
X002552896Y001647273D01*
X002549864Y001647876D01*
X002546889Y001648715D01*
X002543988Y001649785D01*
X002541181Y001651079D01*
X002538484Y001652590D01*
X002535913Y001654307D01*
X002533486Y001656221D01*
X002531216Y001658319D01*
X002529117Y001660589D01*
X002527204Y001663017D01*
X002525486Y001665587D01*
X002523976Y001668284D01*
X002522681Y001671092D01*
X002521611Y001673992D01*
X002520772Y001676967D01*
X002520169Y001679999D01*
X002519806Y001683069D01*
X002519685Y001686158D01*
X002519685Y002014628D01*
X001576367Y002440944D02*
X001576367Y002440944D01*
X001573278Y002441066D01*
X001570208Y002441429D01*
X001567176Y002442032D01*
X001564201Y002442871D01*
X001561301Y002443941D01*
X001558493Y002445235D01*
X001555796Y002446746D01*
X001553226Y002448463D01*
X001550798Y002450377D01*
X001548528Y002452476D01*
X001546430Y002454746D01*
X001544516Y002457173D01*
X001542799Y002459744D01*
X001541288Y002462441D01*
X001539994Y002465248D01*
X001538924Y002468148D01*
X001538085Y002471124D01*
X001537482Y002474156D01*
X001537118Y002477226D01*
X001536997Y002480314D01*
X001537118Y002483403D01*
X001537482Y002486473D01*
X001538085Y002489505D01*
X001538924Y002492480D01*
X001539994Y002495381D01*
X001541288Y002498188D01*
X001542799Y002500885D01*
X001544516Y002503456D01*
X001546430Y002505883D01*
X001548528Y002508153D01*
X001550798Y002510252D01*
X001553226Y002512166D01*
X001555796Y002513883D01*
X001558493Y002515393D01*
X001561301Y002516688D01*
X001564201Y002517758D01*
X001567176Y002518597D01*
X001570208Y002519200D01*
X001573278Y002519563D01*
X001576367Y002519685D01*
X002053998Y002519685D01*
X002057087Y002519563D01*
X002060157Y002519200D01*
X002063189Y002518597D01*
X002066164Y002517758D01*
X002069065Y002516688D01*
X002071872Y002515393D01*
X002074569Y002513883D01*
X002077140Y002512166D01*
X002079567Y002510252D01*
X002081837Y002508153D01*
X002083936Y002505883D01*
X002085849Y002503456D01*
X002087567Y002500885D01*
X002089077Y002498188D01*
X002090372Y002495381D01*
X002091442Y002492480D01*
X002092281Y002489505D01*
X002092884Y002486473D01*
X002093247Y002483403D01*
X002093369Y002480314D01*
X002093247Y002477226D01*
X002092884Y002474156D01*
X002092281Y002471124D01*
X002091442Y002468148D01*
X002090372Y002465248D01*
X002089077Y002462441D01*
X002087567Y002459744D01*
X002085849Y002457173D01*
X002083936Y002454746D01*
X002081837Y002452476D01*
X002079567Y002450377D01*
X002077140Y002448463D01*
X002074569Y002446746D01*
X002071872Y002445235D01*
X002069065Y002443941D01*
X002066164Y002442871D01*
X002063189Y002442032D01*
X002060157Y002441429D01*
X002057087Y002441066D01*
X002053998Y002440944D01*
X001576367Y002440944D01*
X002519685Y003266152D02*
X002519685Y003266152D01*
X002519806Y003269241D01*
X002520169Y003272310D01*
X002520772Y003275342D01*
X002521611Y003278318D01*
X002522681Y003281218D01*
X002523976Y003284025D01*
X002525486Y003286722D01*
X002527204Y003289293D01*
X002529117Y003291720D01*
X002531216Y003293990D01*
X002533486Y003296089D01*
X002535913Y003298003D01*
X002538484Y003299720D01*
X002541181Y003301231D01*
X002543988Y003302525D01*
X002546889Y003303595D01*
X002549864Y003304434D01*
X002552896Y003305037D01*
X002555966Y003305400D01*
X002559055Y003305522D01*
X002562144Y003305400D01*
X002565213Y003305037D01*
X002568245Y003304434D01*
X002571221Y003303595D01*
X002574121Y003302525D01*
X002576928Y003301231D01*
X002579625Y003299720D01*
X002582196Y003298003D01*
X002584623Y003296089D01*
X002586893Y003293990D01*
X002588992Y003291720D01*
X002590906Y003289293D01*
X002592623Y003286722D01*
X002594134Y003284025D01*
X002595428Y003281218D01*
X002596498Y003278318D01*
X002597337Y003275342D01*
X002597940Y003272310D01*
X002598303Y003269241D01*
X002598425Y003266152D01*
X002598425Y002946001D01*
X002598303Y002942912D01*
X002597940Y002939842D01*
X002597337Y002936810D01*
X002596498Y002933835D01*
X002595428Y002930934D01*
X002594134Y002928127D01*
X002592623Y002925430D01*
X002590906Y002922859D01*
X002588992Y002920432D01*
X002586893Y002918162D01*
X002584623Y002916063D01*
X002582196Y002914150D01*
X002579625Y002912432D01*
X002576928Y002910922D01*
X002574121Y002909627D01*
X002571221Y002908557D01*
X002568245Y002907718D01*
X002565213Y002907115D01*
X002562144Y002906752D01*
X002559055Y002906630D01*
X002555966Y002906752D01*
X002552896Y002907115D01*
X002549864Y002907718D01*
X002546889Y002908557D01*
X002543988Y002909627D01*
X002541181Y002910922D01*
X002538484Y002912432D01*
X002535913Y002914150D01*
X002533486Y002916063D01*
X002531216Y002918162D01*
X002529117Y002920432D01*
X002527204Y002922859D01*
X002525486Y002925430D01*
X002523976Y002928127D01*
X002522681Y002930934D01*
X002521611Y002933835D01*
X002520772Y002936810D01*
X002520169Y002939842D01*
X002519806Y002942912D01*
X002519685Y002946001D01*
X002519685Y003266152D01*
X002636230Y002519685D02*
X002636230Y002519685D01*
X002642389Y002519200D01*
X002648396Y002517758D01*
X002654104Y002515393D01*
X002659371Y002512166D01*
X002664069Y002508153D01*
X002668081Y002503456D01*
X002671309Y002498188D01*
X002673674Y002492480D01*
X002675116Y002486473D01*
X002675600Y002480314D01*
X002675116Y002474156D01*
X002673674Y002468148D01*
X002671309Y002462441D01*
X002668081Y002457173D01*
X002664069Y002452476D01*
X002659371Y002448463D01*
X002654104Y002445235D01*
X002648396Y002442871D01*
X002642389Y002441429D01*
X002636230Y002440944D01*
X002636230Y002440944D01*
X002598425Y002440944D01*
X002598425Y002237339D01*
X002598425Y002237339D01*
X002597940Y002231180D01*
X002596498Y002225173D01*
X002594134Y002219466D01*
X002590906Y002214198D01*
X002586893Y002209500D01*
X002582196Y002205488D01*
X002576928Y002202260D01*
X002571221Y002199896D01*
X002565213Y002198454D01*
X002559055Y002197969D01*
X002552896Y002198454D01*
X002546889Y002199896D01*
X002541181Y002202260D01*
X002535913Y002205488D01*
X002531216Y002209500D01*
X002527204Y002214198D01*
X002523976Y002219466D01*
X002521611Y002225173D01*
X002520169Y002231180D01*
X002519685Y002237339D01*
X002519685Y002285433D01*
X002334645Y002440944D01*
X002276709Y002440944D01*
X002273620Y002441066D01*
X002270550Y002441429D01*
X002267518Y002442032D01*
X002264543Y002442871D01*
X002261643Y002443941D01*
X002258836Y002445235D01*
X002256138Y002446746D01*
X002253568Y002448463D01*
X002251140Y002450377D01*
X002248870Y002452476D01*
X002246772Y002454746D01*
X002244858Y002457173D01*
X002243141Y002459744D01*
X002241630Y002462441D01*
X002240336Y002465248D01*
X002239266Y002468148D01*
X002238427Y002471124D01*
X002237824Y002474156D01*
X002237461Y002477226D01*
X002237339Y002480314D01*
X002237461Y002483403D01*
X002237824Y002486473D01*
X002238427Y002489505D01*
X002239266Y002492480D01*
X002240336Y002495381D01*
X002241630Y002498188D01*
X002243141Y002500885D01*
X002244858Y002503456D01*
X002246772Y002505883D01*
X002248870Y002508153D01*
X002251140Y002510252D01*
X002253568Y002512166D01*
X002256138Y002513883D01*
X002258836Y002515393D01*
X002261643Y002516688D01*
X002264543Y002517758D01*
X002267518Y002518597D01*
X002270550Y002519200D01*
X002273620Y002519563D01*
X002276709Y002519685D01*
X002334645Y002519685D01*
X002519685Y002677165D01*
X002519685Y002723290D01*
X002519806Y002726379D01*
X002520169Y002729449D01*
X002520772Y002732481D01*
X002521611Y002735456D01*
X002522681Y002738356D01*
X002523976Y002741163D01*
X002525486Y002743861D01*
X002527204Y002746431D01*
X002529117Y002748859D01*
X002531216Y002751129D01*
X002533486Y002753227D01*
X002535913Y002755141D01*
X002538484Y002756858D01*
X002541181Y002758369D01*
X002543988Y002759663D01*
X002546889Y002760733D01*
X002549864Y002761572D01*
X002552896Y002762175D01*
X002555966Y002762538D01*
X002559055Y002762660D01*
X002562144Y002762538D01*
X002565213Y002762175D01*
X002568245Y002761572D01*
X002571221Y002760733D01*
X002574121Y002759663D01*
X002576928Y002758369D01*
X002579625Y002756858D01*
X002582196Y002755141D01*
X002584623Y002753227D01*
X002586893Y002751129D01*
X002588992Y002748859D01*
X002590906Y002746431D01*
X002592623Y002743861D01*
X002594134Y002741163D01*
X002595428Y002738356D01*
X002596498Y002735456D01*
X002597337Y002732481D01*
X002597940Y002729449D01*
X002598303Y002726379D01*
X002598425Y002723290D01*
X002598425Y002519685D01*
X002636230Y002519685D01*
X001299212Y003024129D02*
X001299212Y003024129D01*
X001299212Y003024129D01*
X001298727Y003017970D01*
X001297285Y003011963D01*
X001294921Y003006255D01*
X001291693Y003000988D01*
X001287681Y002996290D01*
X001282983Y002992278D01*
X001277716Y002989050D01*
X001272008Y002986686D01*
X001266001Y002985244D01*
X001259842Y002984759D01*
X001253683Y002985244D01*
X001247676Y002986686D01*
X001241968Y002989050D01*
X001236701Y002992278D01*
X001232003Y002996290D01*
X001227991Y003000988D01*
X001224763Y003006255D01*
X001222399Y003011963D01*
X001220957Y003017970D01*
X001220472Y003024129D01*
X001220472Y003266152D01*
X001220593Y003269241D01*
X001220957Y003272310D01*
X001221560Y003275342D01*
X001222399Y003278318D01*
X001223469Y003281218D01*
X001224763Y003284025D01*
X001226274Y003286722D01*
X001227991Y003289293D01*
X001229905Y003291720D01*
X001232003Y003293990D01*
X001234273Y003296089D01*
X001236701Y003298003D01*
X001239271Y003299720D01*
X001241968Y003301231D01*
X001244776Y003302525D01*
X001247676Y003303595D01*
X001250651Y003304434D01*
X001253683Y003305037D01*
X001256753Y003305400D01*
X001259842Y003305522D01*
X001262931Y003305400D01*
X001266001Y003305037D01*
X001269033Y003304434D01*
X001272008Y003303595D01*
X001274908Y003302525D01*
X001277716Y003301231D01*
X001280413Y003299720D01*
X001282983Y003298003D01*
X001285411Y003296089D01*
X001287681Y003293990D01*
X001289779Y003291720D01*
X001291693Y003289293D01*
X001293411Y003286722D01*
X001294921Y003284025D01*
X001296215Y003281218D01*
X001297285Y003278318D01*
X001298124Y003275342D01*
X001298727Y003272310D01*
X001299091Y003269241D01*
X001299212Y003266152D01*
X001299212Y003024129D01*
X002519685Y000746467D02*
X002519685Y000746467D01*
X002519806Y000749555D01*
X002520169Y000752625D01*
X002520772Y000755657D01*
X002521611Y000758633D01*
X002522681Y000761533D01*
X002523976Y000764340D01*
X002525486Y000767037D01*
X002527204Y000769608D01*
X002529117Y000772035D01*
X002531216Y000774305D01*
X002533486Y000776404D01*
X002535913Y000778318D01*
X002538484Y000780035D01*
X002541181Y000781546D01*
X002543988Y000782840D01*
X002546889Y000783910D01*
X002549864Y000784749D01*
X002552896Y000785352D01*
X002555966Y000785715D01*
X002559055Y000785837D01*
X002562144Y000785715D01*
X002565213Y000785352D01*
X002568245Y000784749D01*
X002571221Y000783910D01*
X002574121Y000782840D01*
X002576928Y000781546D01*
X002579625Y000780035D01*
X002582196Y000778318D01*
X002584623Y000776404D01*
X002586893Y000774305D01*
X002588992Y000772035D01*
X002590906Y000769608D01*
X002592623Y000767037D01*
X002594134Y000764340D01*
X002595428Y000761533D01*
X002596498Y000758633D01*
X002597337Y000755657D01*
X002597940Y000752625D01*
X002598303Y000749555D01*
X002598425Y000746467D01*
X002598425Y000426316D01*
X002598425Y000426316D01*
X002597940Y000420157D01*
X002596498Y000414150D01*
X002594134Y000408442D01*
X002590906Y000403174D01*
X002586893Y000398477D01*
X002582196Y000394464D01*
X002576928Y000391237D01*
X002571221Y000388872D01*
X002565213Y000387430D01*
X002559055Y000386945D01*
X002552896Y000387430D01*
X002546889Y000388872D01*
X002541181Y000391237D01*
X002535913Y000394464D01*
X002531216Y000398477D01*
X002527204Y000403174D01*
X002523976Y000408442D01*
X002521611Y000414150D01*
X002520169Y000420157D01*
X002519685Y000426316D01*
X002519685Y000746467D01*
X003344892Y002519685D02*
X003344892Y002519685D01*
X003347981Y002519563D01*
X003351051Y002519200D01*
X003354083Y002518597D01*
X003357058Y002517758D01*
X003359958Y002516688D01*
X003362765Y002515393D01*
X003365463Y002513883D01*
X003368033Y002512166D01*
X003370461Y002510252D01*
X003372731Y002508153D01*
X003374829Y002505883D01*
X003376743Y002503456D01*
X003378460Y002500885D01*
X003379971Y002498188D01*
X003381265Y002495381D01*
X003382335Y002492480D01*
X003383174Y002489505D01*
X003383777Y002486473D01*
X003384140Y002483403D01*
X003384262Y002480314D01*
X003384140Y002477226D01*
X003383777Y002474156D01*
X003383174Y002471124D01*
X003382335Y002468148D01*
X003381265Y002465248D01*
X003379971Y002462441D01*
X003378460Y002459744D01*
X003376743Y002457173D01*
X003374829Y002454746D01*
X003372731Y002452476D01*
X003370461Y002450377D01*
X003368033Y002448463D01*
X003365463Y002446746D01*
X003362765Y002445235D01*
X003359958Y002443941D01*
X003357058Y002442871D01*
X003354083Y002442032D01*
X003351051Y002441429D01*
X003347981Y002441066D01*
X003344892Y002440944D01*
X002875580Y002440944D01*
X002872491Y002441066D01*
X002869421Y002441429D01*
X002866389Y002442032D01*
X002863414Y002442871D01*
X002860513Y002443941D01*
X002857706Y002445235D01*
X002855009Y002446746D01*
X002852439Y002448463D01*
X002850011Y002450377D01*
X002847741Y002452476D01*
X002845642Y002454746D01*
X002843729Y002457173D01*
X002842011Y002459744D01*
X002840501Y002462441D01*
X002839206Y002465248D01*
X002838137Y002468148D01*
X002837297Y002471124D01*
X002836694Y002474156D01*
X002836331Y002477226D01*
X002836210Y002480314D01*
X002836331Y002483403D01*
X002836694Y002486473D01*
X002837297Y002489505D01*
X002838137Y002492480D01*
X002839206Y002495381D01*
X002840501Y002498188D01*
X002842011Y002500885D01*
X002843729Y002503456D01*
X002845642Y002505883D01*
X002847741Y002508153D01*
X002850011Y002510252D01*
X002852439Y002512166D01*
X002855009Y002513883D01*
X002857706Y002515393D01*
X002860513Y002516688D01*
X002863414Y002517758D01*
X002866389Y002518597D01*
X002869421Y002519200D01*
X002872491Y002519563D01*
X002875580Y002519685D01*
X003344892Y002519685D01*
X001615737Y001181102D02*
X001615737Y001181102D01*
X001612648Y001181223D01*
X001609578Y001181587D01*
X001606546Y001182190D01*
X001603571Y001183029D01*
X001600671Y001184099D01*
X001597864Y001185393D01*
X001595166Y001186903D01*
X001592596Y001188621D01*
X001590168Y001190535D01*
X001587898Y001192633D01*
X001585800Y001194903D01*
X001583886Y001197331D01*
X001582169Y001199901D01*
X001580658Y001202598D01*
X001579364Y001205406D01*
X001578294Y001208306D01*
X001577455Y001211281D01*
X001576852Y001214313D01*
X001576488Y001217383D01*
X001576367Y001220472D01*
X001576488Y001223561D01*
X001576852Y001226631D01*
X001577455Y001229663D01*
X001578294Y001232638D01*
X001579364Y001235538D01*
X001580658Y001238346D01*
X001582169Y001241043D01*
X001583886Y001243613D01*
X001585800Y001246041D01*
X001587898Y001248311D01*
X001590168Y001250409D01*
X001592596Y001252323D01*
X001595166Y001254040D01*
X001597864Y001255551D01*
X001600671Y001256845D01*
X001603571Y001257915D01*
X001606546Y001258754D01*
X001609578Y001259357D01*
X001612648Y001259721D01*
X001615737Y001259842D01*
X002053998Y001259842D01*
X002057087Y001259721D01*
X002060157Y001259357D01*
X002063189Y001258754D01*
X002066164Y001257915D01*
X002069065Y001256845D01*
X002071872Y001255551D01*
X002074569Y001254040D01*
X002077140Y001252323D01*
X002079567Y001250409D01*
X002081837Y001248311D01*
X002083936Y001246041D01*
X002085849Y001243613D01*
X002087567Y001241043D01*
X002089077Y001238346D01*
X002090372Y001235538D01*
X002091442Y001232638D01*
X002092281Y001229663D01*
X002092884Y001226631D01*
X002093247Y001223561D01*
X002093369Y001220472D01*
X002093247Y001217383D01*
X002092884Y001214313D01*
X002092281Y001211281D01*
X002091442Y001208306D01*
X002090372Y001205406D01*
X002089077Y001202598D01*
X002087567Y001199901D01*
X002085849Y001197331D01*
X002083936Y001194903D01*
X002081837Y001192633D01*
X002079567Y001190535D01*
X002077140Y001188621D01*
X002074569Y001186903D01*
X002071872Y001185393D01*
X002069065Y001184099D01*
X002066164Y001183029D01*
X002063189Y001182190D01*
X002060157Y001181587D01*
X002057087Y001181223D01*
X002053998Y001181102D01*
X001615737Y001181102D01*
X001220472Y002006309D02*
X001220472Y002006309D01*
X001220593Y002009398D01*
X001220957Y002012468D01*
X001221560Y002015500D01*
X001222399Y002018475D01*
X001223469Y002021375D01*
X001224763Y002024183D01*
X001226274Y002026880D01*
X001227991Y002029450D01*
X001229905Y002031878D01*
X001232003Y002034148D01*
X001234273Y002036246D01*
X001236701Y002038160D01*
X001239271Y002039878D01*
X001241968Y002041388D01*
X001244776Y002042682D01*
X001247676Y002043752D01*
X001250651Y002044591D01*
X001253683Y002045194D01*
X001256753Y002045558D01*
X001259842Y002045679D01*
X001262931Y002045558D01*
X001266001Y002045194D01*
X001269033Y002044591D01*
X001272008Y002043752D01*
X001274908Y002042682D01*
X001277716Y002041388D01*
X001280413Y002039878D01*
X001282983Y002038160D01*
X001285411Y002036246D01*
X001287681Y002034148D01*
X001289779Y002031878D01*
X001291693Y002029450D01*
X001293411Y002026880D01*
X001294921Y002024183D01*
X001296215Y002021375D01*
X001297285Y002018475D01*
X001298124Y002015500D01*
X001298727Y002012468D01*
X001299091Y002009398D01*
X001299212Y002006309D01*
X001299212Y001694477D01*
X001299091Y001691388D01*
X001298727Y001688318D01*
X001298124Y001685287D01*
X001297285Y001682311D01*
X001296215Y001679411D01*
X001294921Y001676604D01*
X001293411Y001673907D01*
X001291693Y001671336D01*
X001289779Y001668909D01*
X001287681Y001666638D01*
X001285411Y001664540D01*
X001282983Y001662626D01*
X001280413Y001660909D01*
X001277716Y001659398D01*
X001274908Y001658104D01*
X001272008Y001657034D01*
X001269033Y001656195D01*
X001266001Y001655592D01*
X001262931Y001655229D01*
X001259842Y001655107D01*
X001256753Y001655229D01*
X001253683Y001655592D01*
X001250651Y001656195D01*
X001247676Y001657034D01*
X001244776Y001658104D01*
X001241968Y001659398D01*
X001239271Y001660909D01*
X001236701Y001662626D01*
X001234273Y001664540D01*
X001232003Y001666638D01*
X001229905Y001668909D01*
X001227991Y001671336D01*
X001226274Y001673907D01*
X001224763Y001676604D01*
X001223469Y001679411D01*
X001222399Y001682311D01*
X001221560Y001685287D01*
X001220957Y001688318D01*
X001220593Y001691388D01*
X001220472Y001694477D01*
X001220472Y002006309D01*
X000676657Y002519685D02*
X000676657Y002519685D01*
X000682816Y002519200D01*
X000688823Y002517758D01*
X000694531Y002515393D01*
X000699799Y002512166D01*
X000704496Y002508153D01*
X000708508Y002503456D01*
X000711736Y002498188D01*
X000714101Y002492480D01*
X000715543Y002486473D01*
X000716027Y002480314D01*
X000715543Y002474156D01*
X000714101Y002468148D01*
X000711736Y002462441D01*
X000708508Y002457173D01*
X000704496Y002452476D01*
X000699799Y002448463D01*
X000694531Y002445235D01*
X000688823Y002442871D01*
X000682816Y002441429D01*
X000676657Y002440944D01*
X000676657Y002440944D01*
X000277154Y002440944D01*
X000277154Y002440944D01*
X000270996Y002441429D01*
X000264988Y002442871D01*
X000259281Y002445235D01*
X000254013Y002448463D01*
X000249316Y002452476D01*
X000245303Y002457173D01*
X000242075Y002462441D01*
X000239711Y002468148D01*
X000238269Y002474156D01*
X000237784Y002480314D01*
X000238269Y002486473D01*
X000239711Y002492480D01*
X000242075Y002498188D01*
X000245303Y002503456D01*
X000249316Y002508153D01*
X000254013Y002512166D01*
X000259281Y002515393D01*
X000264988Y002517758D01*
X000270996Y002519200D01*
X000277154Y002519685D01*
X000676657Y002519685D01*
X000037805Y001259842D02*
X000037805Y001259842D01*
X000043964Y001259357D01*
X000049971Y001257915D01*
X000055679Y001255551D01*
X000060946Y001252323D01*
X000065644Y001248311D01*
X000069656Y001243613D01*
X000072884Y001238346D01*
X000075248Y001232638D01*
X000076691Y001226631D01*
X000077175Y001220472D01*
X000076691Y001214313D01*
X000075248Y001208306D01*
X000072884Y001202598D01*
X000069656Y001197331D01*
X000065644Y001192633D01*
X000060946Y001188621D01*
X000055679Y001185393D01*
X000049971Y001183029D01*
X000043964Y001181587D01*
X000037805Y001181102D01*
X000037805Y001181102D01*
X000000000Y001181102D01*
X000000000Y000000000D01*
X001035433Y000000000D01*
X001220472Y000157480D01*
X001220472Y000193552D01*
X001220472Y000193552D01*
X001220957Y000199711D01*
X001222399Y000205718D01*
X001224763Y000211426D01*
X001227991Y000216694D01*
X001232003Y000221391D01*
X001236701Y000225403D01*
X001241968Y000228631D01*
X001247676Y000230996D01*
X001253683Y000232438D01*
X001259842Y000232922D01*
X001266001Y000232438D01*
X001272008Y000230996D01*
X001277716Y000228631D01*
X001282983Y000225403D01*
X001287681Y000221391D01*
X001291693Y000216694D01*
X001294921Y000211426D01*
X001297285Y000205718D01*
X001298727Y000199711D01*
X001299212Y000193552D01*
X001299212Y000000000D01*
X002334645Y000000000D01*
X002519685Y000157480D01*
X002519685Y000203605D01*
X002520169Y000209764D01*
X002521611Y000215771D01*
X002523976Y000221478D01*
X002527204Y000226746D01*
X002531216Y000231444D01*
X002535913Y000235456D01*
X002541181Y000238684D01*
X002546889Y000241048D01*
X002552896Y000242490D01*
X002559055Y000242975D01*
X002565213Y000242490D01*
X002571221Y000241048D01*
X002576928Y000238684D01*
X002582196Y000235456D01*
X002586893Y000231444D01*
X002590906Y000226746D01*
X002594134Y000221478D01*
X002596498Y000215771D01*
X002597940Y000209764D01*
X002598425Y000203605D01*
X002598425Y000203605D01*
X002598425Y000000000D01*
X003633858Y000000000D01*
X003818897Y000157480D01*
X003818897Y001025590D01*
X003633858Y001181102D01*
X003575922Y001181102D01*
X003572833Y001181223D01*
X003569763Y001181587D01*
X003566731Y001182190D01*
X003563756Y001183029D01*
X003560856Y001184099D01*
X003558048Y001185393D01*
X003555351Y001186903D01*
X003552781Y001188621D01*
X003550353Y001190535D01*
X003548083Y001192633D01*
X003545985Y001194903D01*
X003544071Y001197331D01*
X003542353Y001199901D01*
X003540843Y001202598D01*
X003539549Y001205406D01*
X003538479Y001208306D01*
X003537640Y001211281D01*
X003537036Y001214313D01*
X003536673Y001217383D01*
X003536552Y001220472D01*
X003536673Y001223561D01*
X003537036Y001226631D01*
X003537640Y001229663D01*
X003538479Y001232638D01*
X003539549Y001235538D01*
X003540843Y001238346D01*
X003542353Y001241043D01*
X003544071Y001243613D01*
X003545985Y001246041D01*
X003548083Y001248311D01*
X003550353Y001250409D01*
X003552781Y001252323D01*
X003555351Y001254040D01*
X003558048Y001255551D01*
X003560856Y001256845D01*
X003563756Y001257915D01*
X003566731Y001258754D01*
X003569763Y001259357D01*
X003572833Y001259721D01*
X003575922Y001259842D01*
X003633858Y001259842D01*
X003818897Y001417322D01*
X003818897Y002285433D01*
X003633858Y002440944D01*
X003584241Y002440944D01*
X003578082Y002441429D01*
X003572075Y002442871D01*
X003566367Y002445235D01*
X003561100Y002448463D01*
X003556402Y002452476D01*
X003552390Y002457173D01*
X003549162Y002462441D01*
X003546798Y002468148D01*
X003545356Y002474156D01*
X003544871Y002480314D01*
X003545356Y002486473D01*
X003546798Y002492480D01*
X003549162Y002498188D01*
X003552390Y002503456D01*
X003556402Y002508153D01*
X003561100Y002512166D01*
X003566367Y002515393D01*
X003572075Y002517758D01*
X003578082Y002519200D01*
X003584241Y002519685D01*
X003584241Y002519685D01*
X003633858Y002519685D01*
X003818897Y002677165D01*
X003818897Y003545275D01*
X003633858Y003700787D01*
X002598425Y003700787D01*
X002598425Y003505501D01*
X002598303Y003502412D01*
X002597940Y003499342D01*
X002597337Y003496310D01*
X002596498Y003493335D01*
X002595428Y003490435D01*
X002594134Y003487627D01*
X002592623Y003484930D01*
X002590906Y003482360D01*
X002588992Y003479932D01*
X002586893Y003477662D01*
X002584623Y003475564D01*
X002582196Y003473650D01*
X002579625Y003471932D01*
X002576928Y003470422D01*
X002574121Y003469128D01*
X002571221Y003468058D01*
X002568245Y003467219D01*
X002565213Y003466616D01*
X002562144Y003466252D01*
X002559055Y003466131D01*
X002555966Y003466252D01*
X002552896Y003466616D01*
X002549864Y003467219D01*
X002546889Y003468058D01*
X002543988Y003469128D01*
X002541181Y003470422D01*
X002538484Y003471932D01*
X002535913Y003473650D01*
X002533486Y003475564D01*
X002531216Y003477662D01*
X002529117Y003479932D01*
X002527204Y003482360D01*
X002525486Y003484930D01*
X002523976Y003487627D01*
X002522681Y003490435D01*
X002521611Y003493335D01*
X002520772Y003496310D01*
X002520169Y003499342D01*
X002519806Y003502412D01*
X002519685Y003505501D01*
X002519685Y003545275D01*
X002334645Y003700787D01*
X001299212Y003700787D01*
X001299212Y003505501D01*
X001299091Y003502412D01*
X001298727Y003499342D01*
X001298124Y003496310D01*
X001297285Y003493335D01*
X001296215Y003490435D01*
X001294921Y003487627D01*
X001293411Y003484930D01*
X001291693Y003482360D01*
X001289779Y003479932D01*
X001287681Y003477662D01*
X001285411Y003475564D01*
X001282983Y003473650D01*
X001280413Y003471932D01*
X001277716Y003470422D01*
X001274908Y003469128D01*
X001272008Y003468058D01*
X001269033Y003467219D01*
X001266001Y003466616D01*
X001262931Y003466252D01*
X001259842Y003466131D01*
X001256753Y003466252D01*
X001253683Y003466616D01*
X001250651Y003467219D01*
X001247676Y003468058D01*
X001244776Y003469128D01*
X001241968Y003470422D01*
X001239271Y003471932D01*
X001236701Y003473650D01*
X001234273Y003475564D01*
X001232003Y003477662D01*
X001229905Y003479932D01*
X001227991Y003482360D01*
X001226274Y003484930D01*
X001224763Y003487627D01*
X001223469Y003490435D01*
X001222399Y003493335D01*
X001221560Y003496310D01*
X001220957Y003499342D01*
X001220593Y003502412D01*
X001220472Y003505501D01*
X001220472Y003545275D01*
X001035433Y003700787D01*
X000000000Y003700787D01*
X000000000Y002519685D01*
X000037805Y002519685D01*
X000043964Y002519200D01*
X000049971Y002517758D01*
X000055679Y002515393D01*
X000060946Y002512166D01*
X000065644Y002508153D01*
X000069656Y002503456D01*
X000072884Y002498188D01*
X000075248Y002492480D01*
X000076691Y002486473D01*
X000077175Y002480314D01*
X000076691Y002474156D01*
X000075248Y002468148D01*
X000072884Y002462441D01*
X000069656Y002457173D01*
X000065644Y002452476D01*
X000060946Y002448463D01*
X000055679Y002445235D01*
X000049971Y002442871D01*
X000043964Y002441429D01*
X000037805Y002440944D01*
X000037805Y002440944D01*
X000000000Y002440944D01*
X000000000Y001259842D01*
X000037805Y001259842D01*
X000676657Y001259842D02*
X000676657Y001259842D01*
X000682816Y001259357D01*
X000688823Y001257915D01*
X000694531Y001255551D01*
X000699799Y001252323D01*
X000704496Y001248311D01*
X000708508Y001243613D01*
X000711736Y001238346D01*
X000714101Y001232638D01*
X000715543Y001226631D01*
X000716027Y001220472D01*
X000715543Y001214313D01*
X000714101Y001208306D01*
X000711736Y001202598D01*
X000708508Y001197331D01*
X000704496Y001192633D01*
X000699799Y001188621D01*
X000694531Y001185393D01*
X000688823Y001183029D01*
X000682816Y001181587D01*
X000676657Y001181102D01*
X000676657Y001181102D01*
X000277154Y001181102D01*
X000277154Y001181102D01*
X000270996Y001181587D01*
X000264988Y001183029D01*
X000259281Y001185393D01*
X000254013Y001188621D01*
X000249316Y001192633D01*
X000245303Y001197331D01*
X000242075Y001202598D01*
X000239711Y001208306D01*
X000238269Y001214313D01*
X000237784Y001220472D01*
X000238269Y001226631D01*
X000239711Y001232638D01*
X000242075Y001238346D01*
X000245303Y001243613D01*
X000249316Y001248311D01*
X000254013Y001252323D01*
X000259281Y001255551D01*
X000264988Y001257915D01*
X000270996Y001259357D01*
X000277154Y001259842D01*
X000676657Y001259842D01*
M02*