%MOIN*%
%OFA0B0*%
%FSLAX46Y46*%
%IPPOS*%
%LPD*%
%ADD10C,0.0047244094488188976*%
%ADD21C,0.0047244094488188976*%
%ADD22C,0.0047244094488188976*%
%ADD23C,0.0047244094488188976*%
%ADD24C,0.0047244094488188976*%
%ADD25C,0.0047244094488188976*%
%ADD26C,0.0047244094488188976*%
%ADD27C,0.0047244094488188976*%
%ADD28C,0.0047244094488188976*%
G01*
D10*
X0000048818Y0000543307D02*
X0000075196Y0000543307D01*
X0000048818Y0000645669D02*
X0000048818Y0000543307D01*
X0000076771Y0000645669D02*
X0000048818Y0000645669D01*
G36*
X0000703535Y0000861332D02*
G01*
X0000658847Y0000873363D01*
X0000658847Y0000873676D01*
X0000703535Y0000885707D01*
X0000703535Y0000861332D01*
G37*
G36*
X0000729785Y0000129613D02*
G01*
X0000728457Y0000120199D01*
X0000725722Y0000113207D01*
X0000721211Y0000108266D01*
X0000714550Y0000105004D01*
X0000705273Y0000103187D01*
X0000692910Y0000102582D01*
X0000681211Y0000103168D01*
X0000672363Y0000104926D01*
X0000665918Y0000108070D01*
X0000661425Y0000112816D01*
X0000658515Y0000119516D01*
X0000656816Y0000128519D01*
X0000656230Y0000135863D01*
X0000656035Y0000141957D01*
X0000729316Y0000141957D01*
X0000729785Y0000129613D01*
G37*
G36*
X0000705781Y0000519594D02*
G01*
X0000715332Y0000518129D01*
X0000722090Y0000515512D01*
X0000726582Y0000511566D01*
X0000729101Y0000506000D01*
X0000729941Y0000498519D01*
X0000729101Y0000491058D01*
X0000726582Y0000485551D01*
X0000722090Y0000481664D01*
X0000715332Y0000479066D01*
X0000705781Y0000477601D01*
X0000692910Y0000477113D01*
X0000679648Y0000477601D01*
X0000669863Y0000479066D01*
X0000662988Y0000481664D01*
X0000658457Y0000485551D01*
X0000655937Y0000491058D01*
X0000655097Y0000498519D01*
X0000655937Y0000506000D01*
X0000658457Y0000511566D01*
X0000663007Y0000515512D01*
X0000669941Y0000518129D01*
X0000679746Y0000519594D01*
X0000692910Y0000520082D01*
X0000705781Y0000519594D01*
G37*
G36*
X0000605358Y0000049874D02*
G01*
X0000605358Y0000143832D01*
X0000638847Y0000143832D01*
X0000639043Y0000135394D01*
X0000639629Y0000127894D01*
X0000641191Y0000116914D01*
X0000643587Y0000107721D01*
X0000646816Y0000100316D01*
X0000653672Y0000091976D01*
X0000663300Y0000086488D01*
X0000671608Y0000084231D01*
X0000681842Y0000082877D01*
X0000694004Y0000082426D01*
X0000706721Y0000082947D01*
X0000717372Y0000084509D01*
X0000725957Y0000087113D01*
X0000735664Y0000093402D01*
X0000742129Y0000102894D01*
X0000744820Y0000111315D01*
X0000746434Y0000121783D01*
X0000746972Y0000134301D01*
X0000746833Y0000142512D01*
X0000746417Y0000151731D01*
X0000745722Y0000161957D01*
X0000639472Y0000161957D01*
X0000639004Y0000152426D01*
X0000638847Y0000143832D01*
X0000605358Y0000143832D01*
X0000605358Y0000171488D01*
X0000639472Y0000171488D01*
X0000745722Y0000184144D01*
X0000745722Y0000204926D01*
X0000653222Y0000216957D01*
X0000653222Y0000217582D01*
X0000745722Y0000229769D01*
X0000745722Y0000250394D01*
X0000639472Y0000263051D01*
X0000639472Y0000245863D01*
X0000723066Y0000239769D01*
X0000723066Y0000239613D01*
X0000703691Y0000238519D01*
X0000639472Y0000228519D01*
X0000639472Y0000206019D01*
X0000703691Y0000196332D01*
X0000723066Y0000195082D01*
X0000723066Y0000194926D01*
X0000639472Y0000188676D01*
X0000639472Y0000171488D01*
X0000605358Y0000171488D01*
X0000605358Y0000311332D01*
X0000637910Y0000311332D01*
X0000638574Y0000298031D01*
X0000640566Y0000288129D01*
X0000644160Y0000281078D01*
X0000649629Y0000276332D01*
X0000657402Y0000273676D01*
X0000667910Y0000272894D01*
X0000667910Y0000292738D01*
X0000660019Y0000295004D01*
X0000656113Y0000300785D01*
X0000654941Y0000311957D01*
X0000656035Y0000323441D01*
X0000659629Y0000329144D01*
X0000666972Y0000330863D01*
X0000675019Y0000324848D01*
X0000678867Y0000316469D01*
X0000683379Y0000303363D01*
X0000687480Y0000292016D01*
X0000691660Y0000283598D01*
X0000696328Y0000277641D01*
X0000701894Y0000273676D01*
X0000708750Y0000271449D01*
X0000717285Y0000270707D01*
X0000727675Y0000271605D01*
X0000735410Y0000274301D01*
X0000740879Y0000279125D01*
X0000744472Y0000286410D01*
X0000746465Y0000296742D01*
X0000747129Y0000310707D01*
X0000746386Y0000325101D01*
X0000744160Y0000335785D01*
X0000740136Y0000343305D01*
X0000734004Y0000348207D01*
X0000725332Y0000350785D01*
X0000713691Y0000351332D01*
X0000713691Y0000331801D01*
X0000723769Y0000329301D01*
X0000728691Y0000322660D01*
X0000729746Y0000317055D01*
X0000730097Y0000309457D01*
X0000729004Y0000297816D01*
X0000725175Y0000291957D01*
X0000717441Y0000290238D01*
X0000709472Y0000292738D01*
X0000703457Y0000300941D01*
X0000700625Y0000307836D01*
X0000697597Y0000317113D01*
X0000693672Y0000328734D01*
X0000689707Y0000337348D01*
X0000685351Y0000343422D01*
X0000680254Y0000347426D01*
X0000674043Y0000349652D01*
X0000666347Y0000350394D01*
X0000656504Y0000349516D01*
X0000649160Y0000346879D01*
X0000643945Y0000342152D01*
X0000640488Y0000335004D01*
X0000638554Y0000324906D01*
X0000637910Y0000311332D01*
X0000605358Y0000311332D01*
X0000605358Y0000498519D01*
X0000637910Y0000498519D01*
X0000638457Y0000488511D01*
X0000640097Y0000480151D01*
X0000642832Y0000473441D01*
X0000649453Y0000465902D01*
X0000659472Y0000460941D01*
X0000668396Y0000458901D01*
X0000679542Y0000457677D01*
X0000692910Y0000457269D01*
X0000706087Y0000457677D01*
X0000717076Y0000458901D01*
X0000725879Y0000460941D01*
X0000735761Y0000465902D01*
X0000742285Y0000473441D01*
X0000744976Y0000480151D01*
X0000746590Y0000488511D01*
X0000747129Y0000498519D01*
X0000746590Y0000508528D01*
X0000744976Y0000516887D01*
X0000742285Y0000523598D01*
X0000735761Y0000531137D01*
X0000725879Y0000536098D01*
X0000717076Y0000538137D01*
X0000706087Y0000539361D01*
X0000692910Y0000539769D01*
X0000679542Y0000539361D01*
X0000668396Y0000538137D01*
X0000659472Y0000536098D01*
X0000649453Y0000531137D01*
X0000642832Y0000523598D01*
X0000640097Y0000516887D01*
X0000638457Y0000508528D01*
X0000637910Y0000498519D01*
X0000605358Y0000498519D01*
X0000605358Y0000553832D01*
X0000639472Y0000553832D01*
X0000657285Y0000553832D01*
X0000657285Y0000582269D01*
X0000745722Y0000582269D01*
X0000745722Y0000602269D01*
X0000657285Y0000602269D01*
X0000657285Y0000630707D01*
X0000639472Y0000630707D01*
X0000639472Y0000553832D01*
X0000605358Y0000553832D01*
X0000605358Y0000778519D01*
X0000637910Y0000778519D01*
X0000638613Y0000765590D01*
X0000640722Y0000755863D01*
X0000644472Y0000748851D01*
X0000650097Y0000744066D01*
X0000658066Y0000741156D01*
X0000668847Y0000739769D01*
X0000668847Y0000759144D01*
X0000660488Y0000761488D01*
X0000656347Y0000767348D01*
X0000655097Y0000778363D01*
X0000655957Y0000785980D01*
X0000658535Y0000791644D01*
X0000663144Y0000795648D01*
X0000670097Y0000798285D01*
X0000679902Y0000799750D01*
X0000693066Y0000800238D01*
X0000705937Y0000799691D01*
X0000715488Y0000798051D01*
X0000722226Y0000795141D01*
X0000726660Y0000790785D01*
X0000729121Y0000784633D01*
X0000729941Y0000776332D01*
X0000729238Y0000766723D01*
X0000726816Y0000758988D01*
X0000702910Y0000758988D01*
X0000702910Y0000781019D01*
X0000685879Y0000781019D01*
X0000685879Y0000740082D01*
X0000738847Y0000740082D01*
X0000742910Y0000749808D01*
X0000745410Y0000758051D01*
X0000746699Y0000766254D01*
X0000747129Y0000775863D01*
X0000746582Y0000786540D01*
X0000744941Y0000795447D01*
X0000742207Y0000802582D01*
X0000735605Y0000810609D01*
X0000725644Y0000815941D01*
X0000716799Y0000818155D01*
X0000705783Y0000819483D01*
X0000692597Y0000819926D01*
X0000679325Y0000819509D01*
X0000668257Y0000818259D01*
X0000659394Y0000816176D01*
X0000649433Y0000811156D01*
X0000642832Y0000803598D01*
X0000640097Y0000796887D01*
X0000638457Y0000788528D01*
X0000637910Y0000778519D01*
X0000605358Y0000778519D01*
X0000605358Y0000860863D01*
X0000639472Y0000860863D01*
X0000745722Y0000829144D01*
X0000745722Y0000848988D01*
X0000720254Y0000856644D01*
X0000720254Y0000890394D01*
X0000745722Y0000898051D01*
X0000745722Y0000917894D01*
X0000639472Y0000886176D01*
X0000639472Y0000860863D01*
X0000605358Y0000860863D01*
X0000605358Y0000928832D01*
X0000639472Y0000928832D01*
X0000657285Y0000928832D01*
X0000657285Y0000957269D01*
X0000745722Y0000957269D01*
X0000745722Y0000977269D01*
X0000657285Y0000977269D01*
X0000657285Y0001005707D01*
X0000639472Y0001005707D01*
X0000639472Y0000928832D01*
X0000605358Y0000928832D01*
X0000605358Y0001027426D01*
X0000639472Y0001027426D01*
X0000714160Y0001027426D01*
X0000725644Y0001028226D01*
X0000734160Y0001030629D01*
X0000740175Y0001034945D01*
X0000744160Y0001041488D01*
X0000746386Y0001050746D01*
X0000747129Y0001063207D01*
X0000746386Y0001075766D01*
X0000744160Y0001085004D01*
X0000740215Y0001091449D01*
X0000734316Y0001095629D01*
X0000726035Y0001097797D01*
X0000714941Y0001098207D01*
X0000714941Y0001078207D01*
X0000726582Y0001075238D01*
X0000729785Y0001063676D01*
X0000728300Y0001053754D01*
X0000723379Y0001048754D01*
X0000713535Y0001047269D01*
X0000639472Y0001047269D01*
X0000639472Y0001027426D01*
X0000605358Y0001027426D01*
X0000605358Y0001131228D01*
X0000779681Y0001131228D01*
X0000779681Y0000049874D01*
X0000605358Y0000049874D01*
G37*
X0000129921Y0001094094D02*
X0000077559Y0001094094D01*
X0000179921Y0001094094D02*
X0000179921Y0000991732D01*
X0000282283Y0001094094D02*
X0000179921Y0001094094D01*
X0000282283Y0000089370D02*
X0000077559Y0000089370D01*
X0000282283Y0001094094D02*
X0000282283Y0000089370D01*
X0000077559Y0001094094D02*
X0000077559Y0001041732D01*
X0000179921Y0000991732D02*
X0000077559Y0000991732D01*
X0000077559Y0000991732D02*
X0000077559Y0000089370D01*
G04 next file*
G04 Gerber Fmt 4.6, Leading zero omitted, Abs format (unit mm)*
G04 Created by KiCad (PCBNEW (6.0.9)) date 2023-10-16 16:07:20*
G01*
G04 APERTURE LIST*
G04 APERTURE END LIST*
D21*
X0000048818Y0001803149D02*
X0000075196Y0001803149D01*
X0000048818Y0001905511D02*
X0000048818Y0001803149D01*
X0000076771Y0001905511D02*
X0000048818Y0001905511D01*
G36*
X0000703535Y0002121174D02*
G01*
X0000658847Y0002133206D01*
X0000658847Y0002133518D01*
X0000703535Y0002145549D01*
X0000703535Y0002121174D01*
G37*
G36*
X0000729785Y0001389456D02*
G01*
X0000728457Y0001380042D01*
X0000725722Y0001373049D01*
X0000721211Y0001368108D01*
X0000714550Y0001364846D01*
X0000705273Y0001363030D01*
X0000692910Y0001362424D01*
X0000681211Y0001363010D01*
X0000672363Y0001364768D01*
X0000665918Y0001367913D01*
X0000661425Y0001372659D01*
X0000658515Y0001379358D01*
X0000656816Y0001388362D01*
X0000656230Y0001395706D01*
X0000656035Y0001401799D01*
X0000729316Y0001401799D01*
X0000729785Y0001389456D01*
G37*
G36*
X0000705781Y0001779436D02*
G01*
X0000715332Y0001777971D01*
X0000722090Y0001775354D01*
X0000726582Y0001771409D01*
X0000729101Y0001765842D01*
X0000729941Y0001758362D01*
X0000729101Y0001750901D01*
X0000726582Y0001745393D01*
X0000722090Y0001741506D01*
X0000715332Y0001738909D01*
X0000705781Y0001737444D01*
X0000692910Y0001736956D01*
X0000679648Y0001737444D01*
X0000669863Y0001738909D01*
X0000662988Y0001741506D01*
X0000658457Y0001745393D01*
X0000655937Y0001750901D01*
X0000655097Y0001758362D01*
X0000655937Y0001765842D01*
X0000658457Y0001771409D01*
X0000663007Y0001775354D01*
X0000669941Y0001777971D01*
X0000679746Y0001779436D01*
X0000692910Y0001779924D01*
X0000705781Y0001779436D01*
G37*
G36*
X0000605358Y0001309716D02*
G01*
X0000605358Y0001403674D01*
X0000638847Y0001403674D01*
X0000639043Y0001395237D01*
X0000639629Y0001387737D01*
X0000641191Y0001376756D01*
X0000643587Y0001367563D01*
X0000646816Y0001360159D01*
X0000653672Y0001351819D01*
X0000663300Y0001346331D01*
X0000671608Y0001344074D01*
X0000681842Y0001342720D01*
X0000694004Y0001342268D01*
X0000706721Y0001342789D01*
X0000717372Y0001344352D01*
X0000725957Y0001346956D01*
X0000735664Y0001353245D01*
X0000742129Y0001362737D01*
X0000744820Y0001371157D01*
X0000746434Y0001381626D01*
X0000746972Y0001394143D01*
X0000746833Y0001402355D01*
X0000746417Y0001411574D01*
X0000745722Y0001421799D01*
X0000639472Y0001421799D01*
X0000639004Y0001412268D01*
X0000638847Y0001403674D01*
X0000605358Y0001403674D01*
X0000605358Y0001431331D01*
X0000639472Y0001431331D01*
X0000745722Y0001443987D01*
X0000745722Y0001464768D01*
X0000653222Y0001476799D01*
X0000653222Y0001477424D01*
X0000745722Y0001489612D01*
X0000745722Y0001510237D01*
X0000639472Y0001522893D01*
X0000639472Y0001505706D01*
X0000723066Y0001499612D01*
X0000723066Y0001499456D01*
X0000703691Y0001498362D01*
X0000639472Y0001488362D01*
X0000639472Y0001465862D01*
X0000703691Y0001456174D01*
X0000723066Y0001454924D01*
X0000723066Y0001454768D01*
X0000639472Y0001448518D01*
X0000639472Y0001431331D01*
X0000605358Y0001431331D01*
X0000605358Y0001571174D01*
X0000637910Y0001571174D01*
X0000638574Y0001557874D01*
X0000640566Y0001547971D01*
X0000644160Y0001540921D01*
X0000649629Y0001536174D01*
X0000657402Y0001533518D01*
X0000667910Y0001532737D01*
X0000667910Y0001552581D01*
X0000660019Y0001554846D01*
X0000656113Y0001560628D01*
X0000654941Y0001571799D01*
X0000656035Y0001583284D01*
X0000659629Y0001588987D01*
X0000666972Y0001590706D01*
X0000675019Y0001584690D01*
X0000678867Y0001576311D01*
X0000683379Y0001563206D01*
X0000687480Y0001551858D01*
X0000691660Y0001543440D01*
X0000696328Y0001537483D01*
X0000701894Y0001533518D01*
X0000708750Y0001531292D01*
X0000717285Y0001530549D01*
X0000727675Y0001531448D01*
X0000735410Y0001534143D01*
X0000740879Y0001538967D01*
X0000744472Y0001546253D01*
X0000746465Y0001556585D01*
X0000747129Y0001570549D01*
X0000746386Y0001584944D01*
X0000744160Y0001595628D01*
X0000740136Y0001603147D01*
X0000734004Y0001608049D01*
X0000725332Y0001610628D01*
X0000713691Y0001611174D01*
X0000713691Y0001591643D01*
X0000723769Y0001589143D01*
X0000728691Y0001582503D01*
X0000729746Y0001576897D01*
X0000730097Y0001569299D01*
X0000729004Y0001557659D01*
X0000725175Y0001551799D01*
X0000717441Y0001550081D01*
X0000709472Y0001552581D01*
X0000703457Y0001560784D01*
X0000700625Y0001567678D01*
X0000697597Y0001576956D01*
X0000693672Y0001588577D01*
X0000689707Y0001597190D01*
X0000685351Y0001603264D01*
X0000680254Y0001607268D01*
X0000674043Y0001609495D01*
X0000666347Y0001610237D01*
X0000656504Y0001609358D01*
X0000649160Y0001606721D01*
X0000643945Y0001601995D01*
X0000640488Y0001594846D01*
X0000638554Y0001584749D01*
X0000637910Y0001571174D01*
X0000605358Y0001571174D01*
X0000605358Y0001758362D01*
X0000637910Y0001758362D01*
X0000638457Y0001748353D01*
X0000640097Y0001739994D01*
X0000642832Y0001733284D01*
X0000649453Y0001725745D01*
X0000659472Y0001720784D01*
X0000668396Y0001718744D01*
X0000679542Y0001717520D01*
X0000692910Y0001717112D01*
X0000706087Y0001717520D01*
X0000717076Y0001718744D01*
X0000725879Y0001720784D01*
X0000735761Y0001725745D01*
X0000742285Y0001733284D01*
X0000744976Y0001739994D01*
X0000746590Y0001748353D01*
X0000747129Y0001758362D01*
X0000746590Y0001768371D01*
X0000744976Y0001776730D01*
X0000742285Y0001783440D01*
X0000735761Y0001790979D01*
X0000725879Y0001795940D01*
X0000717076Y0001797980D01*
X0000706087Y0001799204D01*
X0000692910Y0001799612D01*
X0000679542Y0001799204D01*
X0000668396Y0001797980D01*
X0000659472Y0001795940D01*
X0000649453Y0001790979D01*
X0000642832Y0001783440D01*
X0000640097Y0001776730D01*
X0000638457Y0001768371D01*
X0000637910Y0001758362D01*
X0000605358Y0001758362D01*
X0000605358Y0001813674D01*
X0000639472Y0001813674D01*
X0000657285Y0001813674D01*
X0000657285Y0001842112D01*
X0000745722Y0001842112D01*
X0000745722Y0001862112D01*
X0000657285Y0001862112D01*
X0000657285Y0001890549D01*
X0000639472Y0001890549D01*
X0000639472Y0001813674D01*
X0000605358Y0001813674D01*
X0000605358Y0002038362D01*
X0000637910Y0002038362D01*
X0000638613Y0002025432D01*
X0000640722Y0002015706D01*
X0000644472Y0002008694D01*
X0000650097Y0002003909D01*
X0000658066Y0002000999D01*
X0000668847Y0001999612D01*
X0000668847Y0002018987D01*
X0000660488Y0002021331D01*
X0000656347Y0002027190D01*
X0000655097Y0002038206D01*
X0000655957Y0002045823D01*
X0000658535Y0002051487D01*
X0000663144Y0002055491D01*
X0000670097Y0002058128D01*
X0000679902Y0002059592D01*
X0000693066Y0002060081D01*
X0000705937Y0002059534D01*
X0000715488Y0002057893D01*
X0000722226Y0002054983D01*
X0000726660Y0002050628D01*
X0000729121Y0002044475D01*
X0000729941Y0002036174D01*
X0000729238Y0002026565D01*
X0000726816Y0002018831D01*
X0000702910Y0002018831D01*
X0000702910Y0002040862D01*
X0000685879Y0002040862D01*
X0000685879Y0001999924D01*
X0000738847Y0001999924D01*
X0000742910Y0002009651D01*
X0000745410Y0002017893D01*
X0000746699Y0002026096D01*
X0000747129Y0002035706D01*
X0000746582Y0002046383D01*
X0000744941Y0002055289D01*
X0000742207Y0002062424D01*
X0000735605Y0002070452D01*
X0000725644Y0002075784D01*
X0000716799Y0002077997D01*
X0000705783Y0002079325D01*
X0000692597Y0002079768D01*
X0000679325Y0002079352D01*
X0000668257Y0002078102D01*
X0000659394Y0002076018D01*
X0000649433Y0002070999D01*
X0000642832Y0002063440D01*
X0000640097Y0002056730D01*
X0000638457Y0002048371D01*
X0000637910Y0002038362D01*
X0000605358Y0002038362D01*
X0000605358Y0002120706D01*
X0000639472Y0002120706D01*
X0000745722Y0002088987D01*
X0000745722Y0002108831D01*
X0000720254Y0002116487D01*
X0000720254Y0002150237D01*
X0000745722Y0002157893D01*
X0000745722Y0002177737D01*
X0000639472Y0002146018D01*
X0000639472Y0002120706D01*
X0000605358Y0002120706D01*
X0000605358Y0002188674D01*
X0000639472Y0002188674D01*
X0000657285Y0002188674D01*
X0000657285Y0002217112D01*
X0000745722Y0002217112D01*
X0000745722Y0002237112D01*
X0000657285Y0002237112D01*
X0000657285Y0002265549D01*
X0000639472Y0002265549D01*
X0000639472Y0002188674D01*
X0000605358Y0002188674D01*
X0000605358Y0002287268D01*
X0000639472Y0002287268D01*
X0000714160Y0002287268D01*
X0000725644Y0002288069D01*
X0000734160Y0002290471D01*
X0000740175Y0002294788D01*
X0000744160Y0002301331D01*
X0000746386Y0002310589D01*
X0000747129Y0002323049D01*
X0000746386Y0002335608D01*
X0000744160Y0002344846D01*
X0000740215Y0002351292D01*
X0000734316Y0002355471D01*
X0000726035Y0002357639D01*
X0000714941Y0002358049D01*
X0000714941Y0002338049D01*
X0000726582Y0002335081D01*
X0000729785Y0002323518D01*
X0000728300Y0002313596D01*
X0000723379Y0002308596D01*
X0000713535Y0002307112D01*
X0000639472Y0002307112D01*
X0000639472Y0002287268D01*
X0000605358Y0002287268D01*
X0000605358Y0002391070D01*
X0000779681Y0002391070D01*
X0000779681Y0001309716D01*
X0000605358Y0001309716D01*
G37*
X0000129921Y0002353937D02*
X0000077559Y0002353937D01*
X0000179921Y0002353937D02*
X0000179921Y0002251574D01*
X0000282283Y0002353937D02*
X0000179921Y0002353937D01*
X0000282283Y0001349212D02*
X0000077559Y0001349212D01*
X0000282283Y0002353937D02*
X0000282283Y0001349212D01*
X0000077559Y0002353937D02*
X0000077559Y0002301574D01*
X0000179921Y0002251574D02*
X0000077559Y0002251574D01*
X0000077559Y0002251574D02*
X0000077559Y0001349212D01*
G04 next file*
G04 Gerber Fmt 4.6, Leading zero omitted, Abs format (unit mm)*
G04 Created by KiCad (PCBNEW (6.0.9)) date 2023-10-16 16:07:20*
G01*
G04 APERTURE LIST*
G04 APERTURE END LIST*
D22*
X0000048818Y0003062992D02*
X0000075196Y0003062992D01*
X0000048818Y0003165354D02*
X0000048818Y0003062992D01*
X0000076771Y0003165354D02*
X0000048818Y0003165354D01*
G36*
X0000703535Y0003381017D02*
G01*
X0000658847Y0003393048D01*
X0000658847Y0003393361D01*
X0000703535Y0003405392D01*
X0000703535Y0003381017D01*
G37*
G36*
X0000729785Y0002649298D02*
G01*
X0000728457Y0002639884D01*
X0000725722Y0002632892D01*
X0000721211Y0002627951D01*
X0000714550Y0002624689D01*
X0000705273Y0002622872D01*
X0000692910Y0002622267D01*
X0000681211Y0002622853D01*
X0000672363Y0002624611D01*
X0000665918Y0002627755D01*
X0000661425Y0002632501D01*
X0000658515Y0002639201D01*
X0000656816Y0002648204D01*
X0000656230Y0002655548D01*
X0000656035Y0002661642D01*
X0000729316Y0002661642D01*
X0000729785Y0002649298D01*
G37*
G36*
X0000705781Y0003039279D02*
G01*
X0000715332Y0003037814D01*
X0000722090Y0003035197D01*
X0000726582Y0003031251D01*
X0000729101Y0003025685D01*
X0000729941Y0003018204D01*
X0000729101Y0003010744D01*
X0000726582Y0003005236D01*
X0000722090Y0003001349D01*
X0000715332Y0002998751D01*
X0000705781Y0002997287D01*
X0000692910Y0002996798D01*
X0000679648Y0002997287D01*
X0000669863Y0002998751D01*
X0000662988Y0003001349D01*
X0000658457Y0003005236D01*
X0000655937Y0003010744D01*
X0000655097Y0003018204D01*
X0000655937Y0003025685D01*
X0000658457Y0003031251D01*
X0000663007Y0003035197D01*
X0000669941Y0003037814D01*
X0000679746Y0003039279D01*
X0000692910Y0003039767D01*
X0000705781Y0003039279D01*
G37*
G36*
X0000605358Y0002569559D02*
G01*
X0000605358Y0002663517D01*
X0000638847Y0002663517D01*
X0000639043Y0002655079D01*
X0000639629Y0002647579D01*
X0000641191Y0002636599D01*
X0000643587Y0002627406D01*
X0000646816Y0002620001D01*
X0000653672Y0002611661D01*
X0000663300Y0002606173D01*
X0000671608Y0002603916D01*
X0000681842Y0002602562D01*
X0000694004Y0002602111D01*
X0000706721Y0002602632D01*
X0000717372Y0002604194D01*
X0000725957Y0002606798D01*
X0000735664Y0002613087D01*
X0000742129Y0002622579D01*
X0000744820Y0002631000D01*
X0000746434Y0002641468D01*
X0000746972Y0002653986D01*
X0000746833Y0002662198D01*
X0000746417Y0002671416D01*
X0000745722Y0002681642D01*
X0000639472Y0002681642D01*
X0000639004Y0002672111D01*
X0000638847Y0002663517D01*
X0000605358Y0002663517D01*
X0000605358Y0002691173D01*
X0000639472Y0002691173D01*
X0000745722Y0002703829D01*
X0000745722Y0002724611D01*
X0000653222Y0002736642D01*
X0000653222Y0002737267D01*
X0000745722Y0002749454D01*
X0000745722Y0002770079D01*
X0000639472Y0002782736D01*
X0000639472Y0002765548D01*
X0000723066Y0002759454D01*
X0000723066Y0002759298D01*
X0000703691Y0002758204D01*
X0000639472Y0002748204D01*
X0000639472Y0002725704D01*
X0000703691Y0002716017D01*
X0000723066Y0002714767D01*
X0000723066Y0002714611D01*
X0000639472Y0002708361D01*
X0000639472Y0002691173D01*
X0000605358Y0002691173D01*
X0000605358Y0002831017D01*
X0000637910Y0002831017D01*
X0000638574Y0002817716D01*
X0000640566Y0002807814D01*
X0000644160Y0002800763D01*
X0000649629Y0002796017D01*
X0000657402Y0002793361D01*
X0000667910Y0002792579D01*
X0000667910Y0002812423D01*
X0000660019Y0002814689D01*
X0000656113Y0002820470D01*
X0000654941Y0002831642D01*
X0000656035Y0002843126D01*
X0000659629Y0002848829D01*
X0000666972Y0002850548D01*
X0000675019Y0002844533D01*
X0000678867Y0002836154D01*
X0000683379Y0002823048D01*
X0000687480Y0002811701D01*
X0000691660Y0002803283D01*
X0000696328Y0002797326D01*
X0000701894Y0002793361D01*
X0000708750Y0002791134D01*
X0000717285Y0002790392D01*
X0000727675Y0002791290D01*
X0000735410Y0002793986D01*
X0000740879Y0002798810D01*
X0000744472Y0002806095D01*
X0000746465Y0002816427D01*
X0000747129Y0002830392D01*
X0000746386Y0002844787D01*
X0000744160Y0002855470D01*
X0000740136Y0002862990D01*
X0000734004Y0002867892D01*
X0000725332Y0002870470D01*
X0000713691Y0002871017D01*
X0000713691Y0002851486D01*
X0000723769Y0002848986D01*
X0000728691Y0002842345D01*
X0000729746Y0002836740D01*
X0000730097Y0002829142D01*
X0000729004Y0002817501D01*
X0000725175Y0002811642D01*
X0000717441Y0002809923D01*
X0000709472Y0002812423D01*
X0000703457Y0002820626D01*
X0000700625Y0002827521D01*
X0000697597Y0002836798D01*
X0000693672Y0002848419D01*
X0000689707Y0002857033D01*
X0000685351Y0002863107D01*
X0000680254Y0002867111D01*
X0000674043Y0002869337D01*
X0000666347Y0002870079D01*
X0000656504Y0002869201D01*
X0000649160Y0002866564D01*
X0000643945Y0002861837D01*
X0000640488Y0002854689D01*
X0000638554Y0002844591D01*
X0000637910Y0002831017D01*
X0000605358Y0002831017D01*
X0000605358Y0003018204D01*
X0000637910Y0003018204D01*
X0000638457Y0003008196D01*
X0000640097Y0002999836D01*
X0000642832Y0002993126D01*
X0000649453Y0002985587D01*
X0000659472Y0002980626D01*
X0000668396Y0002978586D01*
X0000679542Y0002977362D01*
X0000692910Y0002976954D01*
X0000706087Y0002977362D01*
X0000717076Y0002978586D01*
X0000725879Y0002980626D01*
X0000735761Y0002985587D01*
X0000742285Y0002993126D01*
X0000744976Y0002999836D01*
X0000746590Y0003008196D01*
X0000747129Y0003018204D01*
X0000746590Y0003028213D01*
X0000744976Y0003036573D01*
X0000742285Y0003043283D01*
X0000735761Y0003050822D01*
X0000725879Y0003055783D01*
X0000717076Y0003057823D01*
X0000706087Y0003059046D01*
X0000692910Y0003059454D01*
X0000679542Y0003059046D01*
X0000668396Y0003057823D01*
X0000659472Y0003055783D01*
X0000649453Y0003050822D01*
X0000642832Y0003043283D01*
X0000640097Y0003036573D01*
X0000638457Y0003028213D01*
X0000637910Y0003018204D01*
X0000605358Y0003018204D01*
X0000605358Y0003073517D01*
X0000639472Y0003073517D01*
X0000657285Y0003073517D01*
X0000657285Y0003101954D01*
X0000745722Y0003101954D01*
X0000745722Y0003121954D01*
X0000657285Y0003121954D01*
X0000657285Y0003150392D01*
X0000639472Y0003150392D01*
X0000639472Y0003073517D01*
X0000605358Y0003073517D01*
X0000605358Y0003298204D01*
X0000637910Y0003298204D01*
X0000638613Y0003285275D01*
X0000640722Y0003275548D01*
X0000644472Y0003268537D01*
X0000650097Y0003263751D01*
X0000658066Y0003260841D01*
X0000668847Y0003259454D01*
X0000668847Y0003278829D01*
X0000660488Y0003281173D01*
X0000656347Y0003287033D01*
X0000655097Y0003298048D01*
X0000655957Y0003305665D01*
X0000658535Y0003311329D01*
X0000663144Y0003315333D01*
X0000670097Y0003317970D01*
X0000679902Y0003319435D01*
X0000693066Y0003319923D01*
X0000705937Y0003319376D01*
X0000715488Y0003317736D01*
X0000722226Y0003314826D01*
X0000726660Y0003310470D01*
X0000729121Y0003304318D01*
X0000729941Y0003296017D01*
X0000729238Y0003286408D01*
X0000726816Y0003278673D01*
X0000702910Y0003278673D01*
X0000702910Y0003300704D01*
X0000685879Y0003300704D01*
X0000685879Y0003259767D01*
X0000738847Y0003259767D01*
X0000742910Y0003269494D01*
X0000745410Y0003277736D01*
X0000746699Y0003285939D01*
X0000747129Y0003295548D01*
X0000746582Y0003306225D01*
X0000744941Y0003315132D01*
X0000742207Y0003322267D01*
X0000735605Y0003330294D01*
X0000725644Y0003335626D01*
X0000716799Y0003337840D01*
X0000705783Y0003339168D01*
X0000692597Y0003339611D01*
X0000679325Y0003339194D01*
X0000668257Y0003337944D01*
X0000659394Y0003335861D01*
X0000649433Y0003330841D01*
X0000642832Y0003323283D01*
X0000640097Y0003316573D01*
X0000638457Y0003308213D01*
X0000637910Y0003298204D01*
X0000605358Y0003298204D01*
X0000605358Y0003380548D01*
X0000639472Y0003380548D01*
X0000745722Y0003348829D01*
X0000745722Y0003368673D01*
X0000720254Y0003376329D01*
X0000720254Y0003410079D01*
X0000745722Y0003417736D01*
X0000745722Y0003437579D01*
X0000639472Y0003405861D01*
X0000639472Y0003380548D01*
X0000605358Y0003380548D01*
X0000605358Y0003448517D01*
X0000639472Y0003448517D01*
X0000657285Y0003448517D01*
X0000657285Y0003476954D01*
X0000745722Y0003476954D01*
X0000745722Y0003496954D01*
X0000657285Y0003496954D01*
X0000657285Y0003525392D01*
X0000639472Y0003525392D01*
X0000639472Y0003448517D01*
X0000605358Y0003448517D01*
X0000605358Y0003547111D01*
X0000639472Y0003547111D01*
X0000714160Y0003547111D01*
X0000725644Y0003547912D01*
X0000734160Y0003550314D01*
X0000740175Y0003554630D01*
X0000744160Y0003561173D01*
X0000746386Y0003570431D01*
X0000747129Y0003582892D01*
X0000746386Y0003595451D01*
X0000744160Y0003604689D01*
X0000740215Y0003611134D01*
X0000734316Y0003615314D01*
X0000726035Y0003617482D01*
X0000714941Y0003617892D01*
X0000714941Y0003597892D01*
X0000726582Y0003594923D01*
X0000729785Y0003583361D01*
X0000728300Y0003573439D01*
X0000723379Y0003568439D01*
X0000713535Y0003566954D01*
X0000639472Y0003566954D01*
X0000639472Y0003547111D01*
X0000605358Y0003547111D01*
X0000605358Y0003650913D01*
X0000779681Y0003650913D01*
X0000779681Y0002569559D01*
X0000605358Y0002569559D01*
G37*
X0000129921Y0003613779D02*
X0000077559Y0003613779D01*
X0000179921Y0003613779D02*
X0000179921Y0003511417D01*
X0000282283Y0003613779D02*
X0000179921Y0003613779D01*
X0000282283Y0002609055D02*
X0000077559Y0002609055D01*
X0000282283Y0003613779D02*
X0000282283Y0002609055D01*
X0000077559Y0003613779D02*
X0000077559Y0003561417D01*
X0000179921Y0003511417D02*
X0000077559Y0003511417D01*
X0000077559Y0003511417D02*
X0000077559Y0002609055D01*
G04 next file*
G04 Gerber Fmt 4.6, Leading zero omitted, Abs format (unit mm)*
G04 Created by KiCad (PCBNEW (6.0.9)) date 2023-10-16 16:07:20*
G01*
G04 APERTURE LIST*
G04 APERTURE END LIST*
D23*
X0001348031Y0000543307D02*
X0001374409Y0000543307D01*
X0001348031Y0000645669D02*
X0001348031Y0000543307D01*
X0001375984Y0000645669D02*
X0001348031Y0000645669D01*
G36*
X0002002747Y0000861332D02*
G01*
X0001958060Y0000873363D01*
X0001958060Y0000873676D01*
X0002002747Y0000885707D01*
X0002002747Y0000861332D01*
G37*
G36*
X0002028997Y0000129613D02*
G01*
X0002027669Y0000120199D01*
X0002024935Y0000113207D01*
X0002020423Y0000108266D01*
X0002013763Y0000105004D01*
X0002004486Y0000103187D01*
X0001992122Y0000102582D01*
X0001980423Y0000103168D01*
X0001971575Y0000104926D01*
X0001965130Y0000108070D01*
X0001960638Y0000112816D01*
X0001957728Y0000119516D01*
X0001956029Y0000128519D01*
X0001955443Y0000135863D01*
X0001955247Y0000141957D01*
X0002028529Y0000141957D01*
X0002028997Y0000129613D01*
G37*
G36*
X0002004994Y0000519594D02*
G01*
X0002014544Y0000518129D01*
X0002021302Y0000515512D01*
X0002025794Y0000511566D01*
X0002028314Y0000506000D01*
X0002029154Y0000498519D01*
X0002028314Y0000491058D01*
X0002025794Y0000485551D01*
X0002021302Y0000481664D01*
X0002014544Y0000479066D01*
X0002004994Y0000477601D01*
X0001992122Y0000477113D01*
X0001978861Y0000477601D01*
X0001969076Y0000479066D01*
X0001962201Y0000481664D01*
X0001957669Y0000485551D01*
X0001955150Y0000491058D01*
X0001954310Y0000498519D01*
X0001955150Y0000506000D01*
X0001957669Y0000511566D01*
X0001962220Y0000515512D01*
X0001969154Y0000518129D01*
X0001978958Y0000519594D01*
X0001992122Y0000520082D01*
X0002004994Y0000519594D01*
G37*
G36*
X0001904570Y0000049874D02*
G01*
X0001904570Y0000143832D01*
X0001938060Y0000143832D01*
X0001938255Y0000135394D01*
X0001938841Y0000127894D01*
X0001940404Y0000116914D01*
X0001942800Y0000107721D01*
X0001946029Y0000100316D01*
X0001952884Y0000091976D01*
X0001962513Y0000086488D01*
X0001970820Y0000084231D01*
X0001981055Y0000082877D01*
X0001993216Y0000082426D01*
X0002005933Y0000082947D01*
X0002016584Y0000084509D01*
X0002025169Y0000087113D01*
X0002034876Y0000093402D01*
X0002041341Y0000102894D01*
X0002044032Y0000111315D01*
X0002045647Y0000121783D01*
X0002046185Y0000134301D01*
X0002046046Y0000142512D01*
X0002045629Y0000151731D01*
X0002044935Y0000161957D01*
X0001938685Y0000161957D01*
X0001938216Y0000152426D01*
X0001938060Y0000143832D01*
X0001904570Y0000143832D01*
X0001904570Y0000171488D01*
X0001938685Y0000171488D01*
X0002044935Y0000184144D01*
X0002044935Y0000204926D01*
X0001952435Y0000216957D01*
X0001952435Y0000217582D01*
X0002044935Y0000229769D01*
X0002044935Y0000250394D01*
X0001938685Y0000263051D01*
X0001938685Y0000245863D01*
X0002022279Y0000239769D01*
X0002022279Y0000239613D01*
X0002002904Y0000238519D01*
X0001938685Y0000228519D01*
X0001938685Y0000206019D01*
X0002002904Y0000196332D01*
X0002022279Y0000195082D01*
X0002022279Y0000194926D01*
X0001938685Y0000188676D01*
X0001938685Y0000171488D01*
X0001904570Y0000171488D01*
X0001904570Y0000311332D01*
X0001937122Y0000311332D01*
X0001937786Y0000298031D01*
X0001939779Y0000288129D01*
X0001943372Y0000281078D01*
X0001948841Y0000276332D01*
X0001956615Y0000273676D01*
X0001967122Y0000272894D01*
X0001967122Y0000292738D01*
X0001959232Y0000295004D01*
X0001955326Y0000300785D01*
X0001954154Y0000311957D01*
X0001955247Y0000323441D01*
X0001958841Y0000329144D01*
X0001966185Y0000330863D01*
X0001974232Y0000324848D01*
X0001978079Y0000316469D01*
X0001982591Y0000303363D01*
X0001986693Y0000292016D01*
X0001990872Y0000283598D01*
X0001995540Y0000277641D01*
X0002001107Y0000273676D01*
X0002007962Y0000271449D01*
X0002016497Y0000270707D01*
X0002026888Y0000271605D01*
X0002034622Y0000274301D01*
X0002040091Y0000279125D01*
X0002043685Y0000286410D01*
X0002045677Y0000296742D01*
X0002046341Y0000310707D01*
X0002045599Y0000325101D01*
X0002043372Y0000335785D01*
X0002039349Y0000343305D01*
X0002033216Y0000348207D01*
X0002024544Y0000350785D01*
X0002012904Y0000351332D01*
X0002012904Y0000331801D01*
X0002022982Y0000329301D01*
X0002027904Y0000322660D01*
X0002028958Y0000317055D01*
X0002029310Y0000309457D01*
X0002028216Y0000297816D01*
X0002024388Y0000291957D01*
X0002016654Y0000290238D01*
X0002008685Y0000292738D01*
X0002002669Y0000300941D01*
X0001999837Y0000307836D01*
X0001996810Y0000317113D01*
X0001992884Y0000328734D01*
X0001988919Y0000337348D01*
X0001984564Y0000343422D01*
X0001979466Y0000347426D01*
X0001973255Y0000349652D01*
X0001965560Y0000350394D01*
X0001955716Y0000349516D01*
X0001948372Y0000346879D01*
X0001943158Y0000342152D01*
X0001939701Y0000335004D01*
X0001937767Y0000324906D01*
X0001937122Y0000311332D01*
X0001904570Y0000311332D01*
X0001904570Y0000498519D01*
X0001937122Y0000498519D01*
X0001937669Y0000488511D01*
X0001939310Y0000480151D01*
X0001942044Y0000473441D01*
X0001948665Y0000465902D01*
X0001958685Y0000460941D01*
X0001967609Y0000458901D01*
X0001978754Y0000457677D01*
X0001992122Y0000457269D01*
X0002005299Y0000457677D01*
X0002016289Y0000458901D01*
X0002025091Y0000460941D01*
X0002034974Y0000465902D01*
X0002041497Y0000473441D01*
X0002044188Y0000480151D01*
X0002045803Y0000488511D01*
X0002046341Y0000498519D01*
X0002045803Y0000508528D01*
X0002044188Y0000516887D01*
X0002041497Y0000523598D01*
X0002034974Y0000531137D01*
X0002025091Y0000536098D01*
X0002016289Y0000538137D01*
X0002005299Y0000539361D01*
X0001992122Y0000539769D01*
X0001978754Y0000539361D01*
X0001967609Y0000538137D01*
X0001958685Y0000536098D01*
X0001948665Y0000531137D01*
X0001942044Y0000523598D01*
X0001939310Y0000516887D01*
X0001937669Y0000508528D01*
X0001937122Y0000498519D01*
X0001904570Y0000498519D01*
X0001904570Y0000553832D01*
X0001938685Y0000553832D01*
X0001956497Y0000553832D01*
X0001956497Y0000582269D01*
X0002044935Y0000582269D01*
X0002044935Y0000602269D01*
X0001956497Y0000602269D01*
X0001956497Y0000630707D01*
X0001938685Y0000630707D01*
X0001938685Y0000553832D01*
X0001904570Y0000553832D01*
X0001904570Y0000778519D01*
X0001937122Y0000778519D01*
X0001937826Y0000765590D01*
X0001939935Y0000755863D01*
X0001943685Y0000748851D01*
X0001949310Y0000744066D01*
X0001957279Y0000741156D01*
X0001968060Y0000739769D01*
X0001968060Y0000759144D01*
X0001959701Y0000761488D01*
X0001955560Y0000767348D01*
X0001954310Y0000778363D01*
X0001955169Y0000785980D01*
X0001957747Y0000791644D01*
X0001962357Y0000795648D01*
X0001969310Y0000798285D01*
X0001979115Y0000799750D01*
X0001992279Y0000800238D01*
X0002005150Y0000799691D01*
X0002014701Y0000798051D01*
X0002021439Y0000795141D01*
X0002025872Y0000790785D01*
X0002028333Y0000784633D01*
X0002029154Y0000776332D01*
X0002028451Y0000766723D01*
X0002026029Y0000758988D01*
X0002002122Y0000758988D01*
X0002002122Y0000781019D01*
X0001985091Y0000781019D01*
X0001985091Y0000740082D01*
X0002038060Y0000740082D01*
X0002042122Y0000749808D01*
X0002044622Y0000758051D01*
X0002045911Y0000766254D01*
X0002046341Y0000775863D01*
X0002045794Y0000786540D01*
X0002044154Y0000795447D01*
X0002041419Y0000802582D01*
X0002034818Y0000810609D01*
X0002024857Y0000815941D01*
X0002016011Y0000818155D01*
X0002004996Y0000819483D01*
X0001991810Y0000819926D01*
X0001978537Y0000819509D01*
X0001967470Y0000818259D01*
X0001958607Y0000816176D01*
X0001948646Y0000811156D01*
X0001942044Y0000803598D01*
X0001939310Y0000796887D01*
X0001937669Y0000788528D01*
X0001937122Y0000778519D01*
X0001904570Y0000778519D01*
X0001904570Y0000860863D01*
X0001938685Y0000860863D01*
X0002044935Y0000829144D01*
X0002044935Y0000848988D01*
X0002019466Y0000856644D01*
X0002019466Y0000890394D01*
X0002044935Y0000898051D01*
X0002044935Y0000917894D01*
X0001938685Y0000886176D01*
X0001938685Y0000860863D01*
X0001904570Y0000860863D01*
X0001904570Y0000928832D01*
X0001938685Y0000928832D01*
X0001956497Y0000928832D01*
X0001956497Y0000957269D01*
X0002044935Y0000957269D01*
X0002044935Y0000977269D01*
X0001956497Y0000977269D01*
X0001956497Y0001005707D01*
X0001938685Y0001005707D01*
X0001938685Y0000928832D01*
X0001904570Y0000928832D01*
X0001904570Y0001027426D01*
X0001938685Y0001027426D01*
X0002013372Y0001027426D01*
X0002024857Y0001028226D01*
X0002033372Y0001030629D01*
X0002039388Y0001034945D01*
X0002043372Y0001041488D01*
X0002045599Y0001050746D01*
X0002046341Y0001063207D01*
X0002045599Y0001075766D01*
X0002043372Y0001085004D01*
X0002039427Y0001091449D01*
X0002033529Y0001095629D01*
X0002025247Y0001097797D01*
X0002014154Y0001098207D01*
X0002014154Y0001078207D01*
X0002025794Y0001075238D01*
X0002028997Y0001063676D01*
X0002027513Y0001053754D01*
X0002022591Y0001048754D01*
X0002012747Y0001047269D01*
X0001938685Y0001047269D01*
X0001938685Y0001027426D01*
X0001904570Y0001027426D01*
X0001904570Y0001131228D01*
X0002078893Y0001131228D01*
X0002078893Y0000049874D01*
X0001904570Y0000049874D01*
G37*
X0001429133Y0001094094D02*
X0001376771Y0001094094D01*
X0001479133Y0001094094D02*
X0001479133Y0000991732D01*
X0001581496Y0001094094D02*
X0001479133Y0001094094D01*
X0001581496Y0000089370D02*
X0001376771Y0000089370D01*
X0001581496Y0001094094D02*
X0001581496Y0000089370D01*
X0001376771Y0001094094D02*
X0001376771Y0001041732D01*
X0001479133Y0000991732D02*
X0001376771Y0000991732D01*
X0001376771Y0000991732D02*
X0001376771Y0000089370D01*
G04 next file*
G04 Gerber Fmt 4.6, Leading zero omitted, Abs format (unit mm)*
G04 Created by KiCad (PCBNEW (6.0.9)) date 2023-10-16 16:07:20*
G01*
G04 APERTURE LIST*
G04 APERTURE END LIST*
D24*
X0002647244Y0000543307D02*
X0002673622Y0000543307D01*
X0002647244Y0000645669D02*
X0002647244Y0000543307D01*
X0002675196Y0000645669D02*
X0002647244Y0000645669D01*
G36*
X0003301960Y0000861332D02*
G01*
X0003257272Y0000873363D01*
X0003257272Y0000873676D01*
X0003301960Y0000885707D01*
X0003301960Y0000861332D01*
G37*
G36*
X0003328210Y0000129613D02*
G01*
X0003326882Y0000120199D01*
X0003324147Y0000113207D01*
X0003319636Y0000108266D01*
X0003312976Y0000105004D01*
X0003303698Y0000103187D01*
X0003291335Y0000102582D01*
X0003279636Y0000103168D01*
X0003270788Y0000104926D01*
X0003264343Y0000108070D01*
X0003259851Y0000112816D01*
X0003256940Y0000119516D01*
X0003255241Y0000128519D01*
X0003254655Y0000135863D01*
X0003254460Y0000141957D01*
X0003327741Y0000141957D01*
X0003328210Y0000129613D01*
G37*
G36*
X0003304206Y0000519594D02*
G01*
X0003313757Y0000518129D01*
X0003320515Y0000515512D01*
X0003325007Y0000511566D01*
X0003327526Y0000506000D01*
X0003328366Y0000498519D01*
X0003327526Y0000491058D01*
X0003325007Y0000485551D01*
X0003320515Y0000481664D01*
X0003313757Y0000479066D01*
X0003304206Y0000477601D01*
X0003291335Y0000477113D01*
X0003278073Y0000477601D01*
X0003268288Y0000479066D01*
X0003261413Y0000481664D01*
X0003256882Y0000485551D01*
X0003254362Y0000491058D01*
X0003253522Y0000498519D01*
X0003254362Y0000506000D01*
X0003256882Y0000511566D01*
X0003261433Y0000515512D01*
X0003268366Y0000518129D01*
X0003278171Y0000519594D01*
X0003291335Y0000520082D01*
X0003304206Y0000519594D01*
G37*
G36*
X0003203783Y0000049874D02*
G01*
X0003203783Y0000143832D01*
X0003237272Y0000143832D01*
X0003237468Y0000135394D01*
X0003238054Y0000127894D01*
X0003239616Y0000116914D01*
X0003242012Y0000107721D01*
X0003245241Y0000100316D01*
X0003252097Y0000091976D01*
X0003261726Y0000086488D01*
X0003270033Y0000084231D01*
X0003280267Y0000082877D01*
X0003292429Y0000082426D01*
X0003305146Y0000082947D01*
X0003315797Y0000084509D01*
X0003324382Y0000087113D01*
X0003334089Y0000093402D01*
X0003340554Y0000102894D01*
X0003343245Y0000111315D01*
X0003344859Y0000121783D01*
X0003345397Y0000134301D01*
X0003345259Y0000142512D01*
X0003344842Y0000151731D01*
X0003344147Y0000161957D01*
X0003237897Y0000161957D01*
X0003237429Y0000152426D01*
X0003237272Y0000143832D01*
X0003203783Y0000143832D01*
X0003203783Y0000171488D01*
X0003237897Y0000171488D01*
X0003344147Y0000184144D01*
X0003344147Y0000204926D01*
X0003251647Y0000216957D01*
X0003251647Y0000217582D01*
X0003344147Y0000229769D01*
X0003344147Y0000250394D01*
X0003237897Y0000263051D01*
X0003237897Y0000245863D01*
X0003321491Y0000239769D01*
X0003321491Y0000239613D01*
X0003302116Y0000238519D01*
X0003237897Y0000228519D01*
X0003237897Y0000206019D01*
X0003302116Y0000196332D01*
X0003321491Y0000195082D01*
X0003321491Y0000194926D01*
X0003237897Y0000188676D01*
X0003237897Y0000171488D01*
X0003203783Y0000171488D01*
X0003203783Y0000311332D01*
X0003236335Y0000311332D01*
X0003236999Y0000298031D01*
X0003238991Y0000288129D01*
X0003242585Y0000281078D01*
X0003248054Y0000276332D01*
X0003255827Y0000273676D01*
X0003266335Y0000272894D01*
X0003266335Y0000292738D01*
X0003258444Y0000295004D01*
X0003254538Y0000300785D01*
X0003253366Y0000311957D01*
X0003254460Y0000323441D01*
X0003258054Y0000329144D01*
X0003265397Y0000330863D01*
X0003273444Y0000324848D01*
X0003277292Y0000316469D01*
X0003281804Y0000303363D01*
X0003285905Y0000292016D01*
X0003290085Y0000283598D01*
X0003294753Y0000277641D01*
X0003300319Y0000273676D01*
X0003307175Y0000271449D01*
X0003315710Y0000270707D01*
X0003326101Y0000271605D01*
X0003333835Y0000274301D01*
X0003339304Y0000279125D01*
X0003342897Y0000286410D01*
X0003344890Y0000296742D01*
X0003345554Y0000310707D01*
X0003344812Y0000325101D01*
X0003342585Y0000335785D01*
X0003338562Y0000343305D01*
X0003332429Y0000348207D01*
X0003323757Y0000350785D01*
X0003312116Y0000351332D01*
X0003312116Y0000331801D01*
X0003322194Y0000329301D01*
X0003327116Y0000322660D01*
X0003328171Y0000317055D01*
X0003328522Y0000309457D01*
X0003327429Y0000297816D01*
X0003323601Y0000291957D01*
X0003315866Y0000290238D01*
X0003307897Y0000292738D01*
X0003301882Y0000300941D01*
X0003299050Y0000307836D01*
X0003296022Y0000317113D01*
X0003292097Y0000328734D01*
X0003288132Y0000337348D01*
X0003283776Y0000343422D01*
X0003278679Y0000347426D01*
X0003272468Y0000349652D01*
X0003264772Y0000350394D01*
X0003254929Y0000349516D01*
X0003247585Y0000346879D01*
X0003242370Y0000342152D01*
X0003238913Y0000335004D01*
X0003236980Y0000324906D01*
X0003236335Y0000311332D01*
X0003203783Y0000311332D01*
X0003203783Y0000498519D01*
X0003236335Y0000498519D01*
X0003236882Y0000488511D01*
X0003238522Y0000480151D01*
X0003241257Y0000473441D01*
X0003247878Y0000465902D01*
X0003257897Y0000460941D01*
X0003266821Y0000458901D01*
X0003277967Y0000457677D01*
X0003291335Y0000457269D01*
X0003304512Y0000457677D01*
X0003315502Y0000458901D01*
X0003324304Y0000460941D01*
X0003334187Y0000465902D01*
X0003340710Y0000473441D01*
X0003343401Y0000480151D01*
X0003345016Y0000488511D01*
X0003345554Y0000498519D01*
X0003345016Y0000508528D01*
X0003343401Y0000516887D01*
X0003340710Y0000523598D01*
X0003334187Y0000531137D01*
X0003324304Y0000536098D01*
X0003315502Y0000538137D01*
X0003304512Y0000539361D01*
X0003291335Y0000539769D01*
X0003277967Y0000539361D01*
X0003266821Y0000538137D01*
X0003257897Y0000536098D01*
X0003247878Y0000531137D01*
X0003241257Y0000523598D01*
X0003238522Y0000516887D01*
X0003236882Y0000508528D01*
X0003236335Y0000498519D01*
X0003203783Y0000498519D01*
X0003203783Y0000553832D01*
X0003237897Y0000553832D01*
X0003255710Y0000553832D01*
X0003255710Y0000582269D01*
X0003344147Y0000582269D01*
X0003344147Y0000602269D01*
X0003255710Y0000602269D01*
X0003255710Y0000630707D01*
X0003237897Y0000630707D01*
X0003237897Y0000553832D01*
X0003203783Y0000553832D01*
X0003203783Y0000778519D01*
X0003236335Y0000778519D01*
X0003237038Y0000765590D01*
X0003239147Y0000755863D01*
X0003242897Y0000748851D01*
X0003248522Y0000744066D01*
X0003256491Y0000741156D01*
X0003267272Y0000739769D01*
X0003267272Y0000759144D01*
X0003258913Y0000761488D01*
X0003254772Y0000767348D01*
X0003253522Y0000778363D01*
X0003254382Y0000785980D01*
X0003256960Y0000791644D01*
X0003261569Y0000795648D01*
X0003268522Y0000798285D01*
X0003278327Y0000799750D01*
X0003291491Y0000800238D01*
X0003304362Y0000799691D01*
X0003313913Y0000798051D01*
X0003320651Y0000795141D01*
X0003325085Y0000790785D01*
X0003327546Y0000784633D01*
X0003328366Y0000776332D01*
X0003327663Y0000766723D01*
X0003325241Y0000758988D01*
X0003301335Y0000758988D01*
X0003301335Y0000781019D01*
X0003284304Y0000781019D01*
X0003284304Y0000740082D01*
X0003337272Y0000740082D01*
X0003341335Y0000749808D01*
X0003343835Y0000758051D01*
X0003345124Y0000766254D01*
X0003345554Y0000775863D01*
X0003345007Y0000786540D01*
X0003343366Y0000795447D01*
X0003340632Y0000802582D01*
X0003334030Y0000810609D01*
X0003324069Y0000815941D01*
X0003315224Y0000818155D01*
X0003304208Y0000819483D01*
X0003291022Y0000819926D01*
X0003277750Y0000819509D01*
X0003266682Y0000818259D01*
X0003257819Y0000816176D01*
X0003247858Y0000811156D01*
X0003241257Y0000803598D01*
X0003238522Y0000796887D01*
X0003236882Y0000788528D01*
X0003236335Y0000778519D01*
X0003203783Y0000778519D01*
X0003203783Y0000860863D01*
X0003237897Y0000860863D01*
X0003344147Y0000829144D01*
X0003344147Y0000848988D01*
X0003318679Y0000856644D01*
X0003318679Y0000890394D01*
X0003344147Y0000898051D01*
X0003344147Y0000917894D01*
X0003237897Y0000886176D01*
X0003237897Y0000860863D01*
X0003203783Y0000860863D01*
X0003203783Y0000928832D01*
X0003237897Y0000928832D01*
X0003255710Y0000928832D01*
X0003255710Y0000957269D01*
X0003344147Y0000957269D01*
X0003344147Y0000977269D01*
X0003255710Y0000977269D01*
X0003255710Y0001005707D01*
X0003237897Y0001005707D01*
X0003237897Y0000928832D01*
X0003203783Y0000928832D01*
X0003203783Y0001027426D01*
X0003237897Y0001027426D01*
X0003312585Y0001027426D01*
X0003324069Y0001028226D01*
X0003332585Y0001030629D01*
X0003338601Y0001034945D01*
X0003342585Y0001041488D01*
X0003344812Y0001050746D01*
X0003345554Y0001063207D01*
X0003344812Y0001075766D01*
X0003342585Y0001085004D01*
X0003338640Y0001091449D01*
X0003332741Y0001095629D01*
X0003324460Y0001097797D01*
X0003313366Y0001098207D01*
X0003313366Y0001078207D01*
X0003325007Y0001075238D01*
X0003328210Y0001063676D01*
X0003326726Y0001053754D01*
X0003321804Y0001048754D01*
X0003311960Y0001047269D01*
X0003237897Y0001047269D01*
X0003237897Y0001027426D01*
X0003203783Y0001027426D01*
X0003203783Y0001131228D01*
X0003378106Y0001131228D01*
X0003378106Y0000049874D01*
X0003203783Y0000049874D01*
G37*
X0002728346Y0001094094D02*
X0002675984Y0001094094D01*
X0002778346Y0001094094D02*
X0002778346Y0000991732D01*
X0002880708Y0001094094D02*
X0002778346Y0001094094D01*
X0002880708Y0000089370D02*
X0002675984Y0000089370D01*
X0002880708Y0001094094D02*
X0002880708Y0000089370D01*
X0002675984Y0001094094D02*
X0002675984Y0001041732D01*
X0002778346Y0000991732D02*
X0002675984Y0000991732D01*
X0002675984Y0000991732D02*
X0002675984Y0000089370D01*
G04 next file*
G04 Gerber Fmt 4.6, Leading zero omitted, Abs format (unit mm)*
G04 Created by KiCad (PCBNEW (6.0.9)) date 2023-10-16 16:07:20*
G01*
G04 APERTURE LIST*
G04 APERTURE END LIST*
D25*
X0001348031Y0001803149D02*
X0001374409Y0001803149D01*
X0001348031Y0001905511D02*
X0001348031Y0001803149D01*
X0001375984Y0001905511D02*
X0001348031Y0001905511D01*
G36*
X0002002747Y0002121174D02*
G01*
X0001958060Y0002133206D01*
X0001958060Y0002133518D01*
X0002002747Y0002145549D01*
X0002002747Y0002121174D01*
G37*
G36*
X0002028997Y0001389456D02*
G01*
X0002027669Y0001380042D01*
X0002024935Y0001373049D01*
X0002020423Y0001368108D01*
X0002013763Y0001364846D01*
X0002004486Y0001363030D01*
X0001992122Y0001362424D01*
X0001980423Y0001363010D01*
X0001971575Y0001364768D01*
X0001965130Y0001367913D01*
X0001960638Y0001372659D01*
X0001957728Y0001379358D01*
X0001956029Y0001388362D01*
X0001955443Y0001395706D01*
X0001955247Y0001401799D01*
X0002028529Y0001401799D01*
X0002028997Y0001389456D01*
G37*
G36*
X0002004994Y0001779436D02*
G01*
X0002014544Y0001777971D01*
X0002021302Y0001775354D01*
X0002025794Y0001771409D01*
X0002028314Y0001765842D01*
X0002029154Y0001758362D01*
X0002028314Y0001750901D01*
X0002025794Y0001745393D01*
X0002021302Y0001741506D01*
X0002014544Y0001738909D01*
X0002004994Y0001737444D01*
X0001992122Y0001736956D01*
X0001978861Y0001737444D01*
X0001969076Y0001738909D01*
X0001962201Y0001741506D01*
X0001957669Y0001745393D01*
X0001955150Y0001750901D01*
X0001954310Y0001758362D01*
X0001955150Y0001765842D01*
X0001957669Y0001771409D01*
X0001962220Y0001775354D01*
X0001969154Y0001777971D01*
X0001978958Y0001779436D01*
X0001992122Y0001779924D01*
X0002004994Y0001779436D01*
G37*
G36*
X0001904570Y0001309716D02*
G01*
X0001904570Y0001403674D01*
X0001938060Y0001403674D01*
X0001938255Y0001395237D01*
X0001938841Y0001387737D01*
X0001940404Y0001376756D01*
X0001942800Y0001367563D01*
X0001946029Y0001360159D01*
X0001952884Y0001351819D01*
X0001962513Y0001346331D01*
X0001970820Y0001344074D01*
X0001981055Y0001342720D01*
X0001993216Y0001342268D01*
X0002005933Y0001342789D01*
X0002016584Y0001344352D01*
X0002025169Y0001346956D01*
X0002034876Y0001353245D01*
X0002041341Y0001362737D01*
X0002044032Y0001371157D01*
X0002045647Y0001381626D01*
X0002046185Y0001394143D01*
X0002046046Y0001402355D01*
X0002045629Y0001411574D01*
X0002044935Y0001421799D01*
X0001938685Y0001421799D01*
X0001938216Y0001412268D01*
X0001938060Y0001403674D01*
X0001904570Y0001403674D01*
X0001904570Y0001431331D01*
X0001938685Y0001431331D01*
X0002044935Y0001443987D01*
X0002044935Y0001464768D01*
X0001952435Y0001476799D01*
X0001952435Y0001477424D01*
X0002044935Y0001489612D01*
X0002044935Y0001510237D01*
X0001938685Y0001522893D01*
X0001938685Y0001505706D01*
X0002022279Y0001499612D01*
X0002022279Y0001499456D01*
X0002002904Y0001498362D01*
X0001938685Y0001488362D01*
X0001938685Y0001465862D01*
X0002002904Y0001456174D01*
X0002022279Y0001454924D01*
X0002022279Y0001454768D01*
X0001938685Y0001448518D01*
X0001938685Y0001431331D01*
X0001904570Y0001431331D01*
X0001904570Y0001571174D01*
X0001937122Y0001571174D01*
X0001937786Y0001557874D01*
X0001939779Y0001547971D01*
X0001943372Y0001540921D01*
X0001948841Y0001536174D01*
X0001956615Y0001533518D01*
X0001967122Y0001532737D01*
X0001967122Y0001552581D01*
X0001959232Y0001554846D01*
X0001955326Y0001560628D01*
X0001954154Y0001571799D01*
X0001955247Y0001583284D01*
X0001958841Y0001588987D01*
X0001966185Y0001590706D01*
X0001974232Y0001584690D01*
X0001978079Y0001576311D01*
X0001982591Y0001563206D01*
X0001986693Y0001551858D01*
X0001990872Y0001543440D01*
X0001995540Y0001537483D01*
X0002001107Y0001533518D01*
X0002007962Y0001531292D01*
X0002016497Y0001530549D01*
X0002026888Y0001531448D01*
X0002034622Y0001534143D01*
X0002040091Y0001538967D01*
X0002043685Y0001546253D01*
X0002045677Y0001556585D01*
X0002046341Y0001570549D01*
X0002045599Y0001584944D01*
X0002043372Y0001595628D01*
X0002039349Y0001603147D01*
X0002033216Y0001608049D01*
X0002024544Y0001610628D01*
X0002012904Y0001611174D01*
X0002012904Y0001591643D01*
X0002022982Y0001589143D01*
X0002027904Y0001582503D01*
X0002028958Y0001576897D01*
X0002029310Y0001569299D01*
X0002028216Y0001557659D01*
X0002024388Y0001551799D01*
X0002016654Y0001550081D01*
X0002008685Y0001552581D01*
X0002002669Y0001560784D01*
X0001999837Y0001567678D01*
X0001996810Y0001576956D01*
X0001992884Y0001588577D01*
X0001988919Y0001597190D01*
X0001984564Y0001603264D01*
X0001979466Y0001607268D01*
X0001973255Y0001609495D01*
X0001965560Y0001610237D01*
X0001955716Y0001609358D01*
X0001948372Y0001606721D01*
X0001943158Y0001601995D01*
X0001939701Y0001594846D01*
X0001937767Y0001584749D01*
X0001937122Y0001571174D01*
X0001904570Y0001571174D01*
X0001904570Y0001758362D01*
X0001937122Y0001758362D01*
X0001937669Y0001748353D01*
X0001939310Y0001739994D01*
X0001942044Y0001733284D01*
X0001948665Y0001725745D01*
X0001958685Y0001720784D01*
X0001967609Y0001718744D01*
X0001978754Y0001717520D01*
X0001992122Y0001717112D01*
X0002005299Y0001717520D01*
X0002016289Y0001718744D01*
X0002025091Y0001720784D01*
X0002034974Y0001725745D01*
X0002041497Y0001733284D01*
X0002044188Y0001739994D01*
X0002045803Y0001748353D01*
X0002046341Y0001758362D01*
X0002045803Y0001768371D01*
X0002044188Y0001776730D01*
X0002041497Y0001783440D01*
X0002034974Y0001790979D01*
X0002025091Y0001795940D01*
X0002016289Y0001797980D01*
X0002005299Y0001799204D01*
X0001992122Y0001799612D01*
X0001978754Y0001799204D01*
X0001967609Y0001797980D01*
X0001958685Y0001795940D01*
X0001948665Y0001790979D01*
X0001942044Y0001783440D01*
X0001939310Y0001776730D01*
X0001937669Y0001768371D01*
X0001937122Y0001758362D01*
X0001904570Y0001758362D01*
X0001904570Y0001813674D01*
X0001938685Y0001813674D01*
X0001956497Y0001813674D01*
X0001956497Y0001842112D01*
X0002044935Y0001842112D01*
X0002044935Y0001862112D01*
X0001956497Y0001862112D01*
X0001956497Y0001890549D01*
X0001938685Y0001890549D01*
X0001938685Y0001813674D01*
X0001904570Y0001813674D01*
X0001904570Y0002038362D01*
X0001937122Y0002038362D01*
X0001937826Y0002025432D01*
X0001939935Y0002015706D01*
X0001943685Y0002008694D01*
X0001949310Y0002003909D01*
X0001957279Y0002000999D01*
X0001968060Y0001999612D01*
X0001968060Y0002018987D01*
X0001959701Y0002021331D01*
X0001955560Y0002027190D01*
X0001954310Y0002038206D01*
X0001955169Y0002045823D01*
X0001957747Y0002051487D01*
X0001962357Y0002055491D01*
X0001969310Y0002058128D01*
X0001979115Y0002059592D01*
X0001992279Y0002060081D01*
X0002005150Y0002059534D01*
X0002014701Y0002057893D01*
X0002021439Y0002054983D01*
X0002025872Y0002050628D01*
X0002028333Y0002044475D01*
X0002029154Y0002036174D01*
X0002028451Y0002026565D01*
X0002026029Y0002018831D01*
X0002002122Y0002018831D01*
X0002002122Y0002040862D01*
X0001985091Y0002040862D01*
X0001985091Y0001999924D01*
X0002038060Y0001999924D01*
X0002042122Y0002009651D01*
X0002044622Y0002017893D01*
X0002045911Y0002026096D01*
X0002046341Y0002035706D01*
X0002045794Y0002046383D01*
X0002044154Y0002055289D01*
X0002041419Y0002062424D01*
X0002034818Y0002070452D01*
X0002024857Y0002075784D01*
X0002016011Y0002077997D01*
X0002004996Y0002079325D01*
X0001991810Y0002079768D01*
X0001978537Y0002079352D01*
X0001967470Y0002078102D01*
X0001958607Y0002076018D01*
X0001948646Y0002070999D01*
X0001942044Y0002063440D01*
X0001939310Y0002056730D01*
X0001937669Y0002048371D01*
X0001937122Y0002038362D01*
X0001904570Y0002038362D01*
X0001904570Y0002120706D01*
X0001938685Y0002120706D01*
X0002044935Y0002088987D01*
X0002044935Y0002108831D01*
X0002019466Y0002116487D01*
X0002019466Y0002150237D01*
X0002044935Y0002157893D01*
X0002044935Y0002177737D01*
X0001938685Y0002146018D01*
X0001938685Y0002120706D01*
X0001904570Y0002120706D01*
X0001904570Y0002188674D01*
X0001938685Y0002188674D01*
X0001956497Y0002188674D01*
X0001956497Y0002217112D01*
X0002044935Y0002217112D01*
X0002044935Y0002237112D01*
X0001956497Y0002237112D01*
X0001956497Y0002265549D01*
X0001938685Y0002265549D01*
X0001938685Y0002188674D01*
X0001904570Y0002188674D01*
X0001904570Y0002287268D01*
X0001938685Y0002287268D01*
X0002013372Y0002287268D01*
X0002024857Y0002288069D01*
X0002033372Y0002290471D01*
X0002039388Y0002294788D01*
X0002043372Y0002301331D01*
X0002045599Y0002310589D01*
X0002046341Y0002323049D01*
X0002045599Y0002335608D01*
X0002043372Y0002344846D01*
X0002039427Y0002351292D01*
X0002033529Y0002355471D01*
X0002025247Y0002357639D01*
X0002014154Y0002358049D01*
X0002014154Y0002338049D01*
X0002025794Y0002335081D01*
X0002028997Y0002323518D01*
X0002027513Y0002313596D01*
X0002022591Y0002308596D01*
X0002012747Y0002307112D01*
X0001938685Y0002307112D01*
X0001938685Y0002287268D01*
X0001904570Y0002287268D01*
X0001904570Y0002391070D01*
X0002078893Y0002391070D01*
X0002078893Y0001309716D01*
X0001904570Y0001309716D01*
G37*
X0001429133Y0002353937D02*
X0001376771Y0002353937D01*
X0001479133Y0002353937D02*
X0001479133Y0002251574D01*
X0001581496Y0002353937D02*
X0001479133Y0002353937D01*
X0001581496Y0001349212D02*
X0001376771Y0001349212D01*
X0001581496Y0002353937D02*
X0001581496Y0001349212D01*
X0001376771Y0002353937D02*
X0001376771Y0002301574D01*
X0001479133Y0002251574D02*
X0001376771Y0002251574D01*
X0001376771Y0002251574D02*
X0001376771Y0001349212D01*
G04 next file*
G04 Gerber Fmt 4.6, Leading zero omitted, Abs format (unit mm)*
G04 Created by KiCad (PCBNEW (6.0.9)) date 2023-10-16 16:07:20*
G01*
G04 APERTURE LIST*
G04 APERTURE END LIST*
D26*
X0001348031Y0003062992D02*
X0001374409Y0003062992D01*
X0001348031Y0003165354D02*
X0001348031Y0003062992D01*
X0001375984Y0003165354D02*
X0001348031Y0003165354D01*
G36*
X0002002747Y0003381017D02*
G01*
X0001958060Y0003393048D01*
X0001958060Y0003393361D01*
X0002002747Y0003405392D01*
X0002002747Y0003381017D01*
G37*
G36*
X0002028997Y0002649298D02*
G01*
X0002027669Y0002639884D01*
X0002024935Y0002632892D01*
X0002020423Y0002627951D01*
X0002013763Y0002624689D01*
X0002004486Y0002622872D01*
X0001992122Y0002622267D01*
X0001980423Y0002622853D01*
X0001971575Y0002624611D01*
X0001965130Y0002627755D01*
X0001960638Y0002632501D01*
X0001957728Y0002639201D01*
X0001956029Y0002648204D01*
X0001955443Y0002655548D01*
X0001955247Y0002661642D01*
X0002028529Y0002661642D01*
X0002028997Y0002649298D01*
G37*
G36*
X0002004994Y0003039279D02*
G01*
X0002014544Y0003037814D01*
X0002021302Y0003035197D01*
X0002025794Y0003031251D01*
X0002028314Y0003025685D01*
X0002029154Y0003018204D01*
X0002028314Y0003010744D01*
X0002025794Y0003005236D01*
X0002021302Y0003001349D01*
X0002014544Y0002998751D01*
X0002004994Y0002997287D01*
X0001992122Y0002996798D01*
X0001978861Y0002997287D01*
X0001969076Y0002998751D01*
X0001962201Y0003001349D01*
X0001957669Y0003005236D01*
X0001955150Y0003010744D01*
X0001954310Y0003018204D01*
X0001955150Y0003025685D01*
X0001957669Y0003031251D01*
X0001962220Y0003035197D01*
X0001969154Y0003037814D01*
X0001978958Y0003039279D01*
X0001992122Y0003039767D01*
X0002004994Y0003039279D01*
G37*
G36*
X0001904570Y0002569559D02*
G01*
X0001904570Y0002663517D01*
X0001938060Y0002663517D01*
X0001938255Y0002655079D01*
X0001938841Y0002647579D01*
X0001940404Y0002636599D01*
X0001942800Y0002627406D01*
X0001946029Y0002620001D01*
X0001952884Y0002611661D01*
X0001962513Y0002606173D01*
X0001970820Y0002603916D01*
X0001981055Y0002602562D01*
X0001993216Y0002602111D01*
X0002005933Y0002602632D01*
X0002016584Y0002604194D01*
X0002025169Y0002606798D01*
X0002034876Y0002613087D01*
X0002041341Y0002622579D01*
X0002044032Y0002631000D01*
X0002045647Y0002641468D01*
X0002046185Y0002653986D01*
X0002046046Y0002662198D01*
X0002045629Y0002671416D01*
X0002044935Y0002681642D01*
X0001938685Y0002681642D01*
X0001938216Y0002672111D01*
X0001938060Y0002663517D01*
X0001904570Y0002663517D01*
X0001904570Y0002691173D01*
X0001938685Y0002691173D01*
X0002044935Y0002703829D01*
X0002044935Y0002724611D01*
X0001952435Y0002736642D01*
X0001952435Y0002737267D01*
X0002044935Y0002749454D01*
X0002044935Y0002770079D01*
X0001938685Y0002782736D01*
X0001938685Y0002765548D01*
X0002022279Y0002759454D01*
X0002022279Y0002759298D01*
X0002002904Y0002758204D01*
X0001938685Y0002748204D01*
X0001938685Y0002725704D01*
X0002002904Y0002716017D01*
X0002022279Y0002714767D01*
X0002022279Y0002714611D01*
X0001938685Y0002708361D01*
X0001938685Y0002691173D01*
X0001904570Y0002691173D01*
X0001904570Y0002831017D01*
X0001937122Y0002831017D01*
X0001937786Y0002817716D01*
X0001939779Y0002807814D01*
X0001943372Y0002800763D01*
X0001948841Y0002796017D01*
X0001956615Y0002793361D01*
X0001967122Y0002792579D01*
X0001967122Y0002812423D01*
X0001959232Y0002814689D01*
X0001955326Y0002820470D01*
X0001954154Y0002831642D01*
X0001955247Y0002843126D01*
X0001958841Y0002848829D01*
X0001966185Y0002850548D01*
X0001974232Y0002844533D01*
X0001978079Y0002836154D01*
X0001982591Y0002823048D01*
X0001986693Y0002811701D01*
X0001990872Y0002803283D01*
X0001995540Y0002797326D01*
X0002001107Y0002793361D01*
X0002007962Y0002791134D01*
X0002016497Y0002790392D01*
X0002026888Y0002791290D01*
X0002034622Y0002793986D01*
X0002040091Y0002798810D01*
X0002043685Y0002806095D01*
X0002045677Y0002816427D01*
X0002046341Y0002830392D01*
X0002045599Y0002844787D01*
X0002043372Y0002855470D01*
X0002039349Y0002862990D01*
X0002033216Y0002867892D01*
X0002024544Y0002870470D01*
X0002012904Y0002871017D01*
X0002012904Y0002851486D01*
X0002022982Y0002848986D01*
X0002027904Y0002842345D01*
X0002028958Y0002836740D01*
X0002029310Y0002829142D01*
X0002028216Y0002817501D01*
X0002024388Y0002811642D01*
X0002016654Y0002809923D01*
X0002008685Y0002812423D01*
X0002002669Y0002820626D01*
X0001999837Y0002827521D01*
X0001996810Y0002836798D01*
X0001992884Y0002848419D01*
X0001988919Y0002857033D01*
X0001984564Y0002863107D01*
X0001979466Y0002867111D01*
X0001973255Y0002869337D01*
X0001965560Y0002870079D01*
X0001955716Y0002869201D01*
X0001948372Y0002866564D01*
X0001943158Y0002861837D01*
X0001939701Y0002854689D01*
X0001937767Y0002844591D01*
X0001937122Y0002831017D01*
X0001904570Y0002831017D01*
X0001904570Y0003018204D01*
X0001937122Y0003018204D01*
X0001937669Y0003008196D01*
X0001939310Y0002999836D01*
X0001942044Y0002993126D01*
X0001948665Y0002985587D01*
X0001958685Y0002980626D01*
X0001967609Y0002978586D01*
X0001978754Y0002977362D01*
X0001992122Y0002976954D01*
X0002005299Y0002977362D01*
X0002016289Y0002978586D01*
X0002025091Y0002980626D01*
X0002034974Y0002985587D01*
X0002041497Y0002993126D01*
X0002044188Y0002999836D01*
X0002045803Y0003008196D01*
X0002046341Y0003018204D01*
X0002045803Y0003028213D01*
X0002044188Y0003036573D01*
X0002041497Y0003043283D01*
X0002034974Y0003050822D01*
X0002025091Y0003055783D01*
X0002016289Y0003057823D01*
X0002005299Y0003059046D01*
X0001992122Y0003059454D01*
X0001978754Y0003059046D01*
X0001967609Y0003057823D01*
X0001958685Y0003055783D01*
X0001948665Y0003050822D01*
X0001942044Y0003043283D01*
X0001939310Y0003036573D01*
X0001937669Y0003028213D01*
X0001937122Y0003018204D01*
X0001904570Y0003018204D01*
X0001904570Y0003073517D01*
X0001938685Y0003073517D01*
X0001956497Y0003073517D01*
X0001956497Y0003101954D01*
X0002044935Y0003101954D01*
X0002044935Y0003121954D01*
X0001956497Y0003121954D01*
X0001956497Y0003150392D01*
X0001938685Y0003150392D01*
X0001938685Y0003073517D01*
X0001904570Y0003073517D01*
X0001904570Y0003298204D01*
X0001937122Y0003298204D01*
X0001937826Y0003285275D01*
X0001939935Y0003275548D01*
X0001943685Y0003268537D01*
X0001949310Y0003263751D01*
X0001957279Y0003260841D01*
X0001968060Y0003259454D01*
X0001968060Y0003278829D01*
X0001959701Y0003281173D01*
X0001955560Y0003287033D01*
X0001954310Y0003298048D01*
X0001955169Y0003305665D01*
X0001957747Y0003311329D01*
X0001962357Y0003315333D01*
X0001969310Y0003317970D01*
X0001979115Y0003319435D01*
X0001992279Y0003319923D01*
X0002005150Y0003319376D01*
X0002014701Y0003317736D01*
X0002021439Y0003314826D01*
X0002025872Y0003310470D01*
X0002028333Y0003304318D01*
X0002029154Y0003296017D01*
X0002028451Y0003286408D01*
X0002026029Y0003278673D01*
X0002002122Y0003278673D01*
X0002002122Y0003300704D01*
X0001985091Y0003300704D01*
X0001985091Y0003259767D01*
X0002038060Y0003259767D01*
X0002042122Y0003269494D01*
X0002044622Y0003277736D01*
X0002045911Y0003285939D01*
X0002046341Y0003295548D01*
X0002045794Y0003306225D01*
X0002044154Y0003315132D01*
X0002041419Y0003322267D01*
X0002034818Y0003330294D01*
X0002024857Y0003335626D01*
X0002016011Y0003337840D01*
X0002004996Y0003339168D01*
X0001991810Y0003339611D01*
X0001978537Y0003339194D01*
X0001967470Y0003337944D01*
X0001958607Y0003335861D01*
X0001948646Y0003330841D01*
X0001942044Y0003323283D01*
X0001939310Y0003316573D01*
X0001937669Y0003308213D01*
X0001937122Y0003298204D01*
X0001904570Y0003298204D01*
X0001904570Y0003380548D01*
X0001938685Y0003380548D01*
X0002044935Y0003348829D01*
X0002044935Y0003368673D01*
X0002019466Y0003376329D01*
X0002019466Y0003410079D01*
X0002044935Y0003417736D01*
X0002044935Y0003437579D01*
X0001938685Y0003405861D01*
X0001938685Y0003380548D01*
X0001904570Y0003380548D01*
X0001904570Y0003448517D01*
X0001938685Y0003448517D01*
X0001956497Y0003448517D01*
X0001956497Y0003476954D01*
X0002044935Y0003476954D01*
X0002044935Y0003496954D01*
X0001956497Y0003496954D01*
X0001956497Y0003525392D01*
X0001938685Y0003525392D01*
X0001938685Y0003448517D01*
X0001904570Y0003448517D01*
X0001904570Y0003547111D01*
X0001938685Y0003547111D01*
X0002013372Y0003547111D01*
X0002024857Y0003547912D01*
X0002033372Y0003550314D01*
X0002039388Y0003554630D01*
X0002043372Y0003561173D01*
X0002045599Y0003570431D01*
X0002046341Y0003582892D01*
X0002045599Y0003595451D01*
X0002043372Y0003604689D01*
X0002039427Y0003611134D01*
X0002033529Y0003615314D01*
X0002025247Y0003617482D01*
X0002014154Y0003617892D01*
X0002014154Y0003597892D01*
X0002025794Y0003594923D01*
X0002028997Y0003583361D01*
X0002027513Y0003573439D01*
X0002022591Y0003568439D01*
X0002012747Y0003566954D01*
X0001938685Y0003566954D01*
X0001938685Y0003547111D01*
X0001904570Y0003547111D01*
X0001904570Y0003650913D01*
X0002078893Y0003650913D01*
X0002078893Y0002569559D01*
X0001904570Y0002569559D01*
G37*
X0001429133Y0003613779D02*
X0001376771Y0003613779D01*
X0001479133Y0003613779D02*
X0001479133Y0003511417D01*
X0001581496Y0003613779D02*
X0001479133Y0003613779D01*
X0001581496Y0002609055D02*
X0001376771Y0002609055D01*
X0001581496Y0003613779D02*
X0001581496Y0002609055D01*
X0001376771Y0003613779D02*
X0001376771Y0003561417D01*
X0001479133Y0003511417D02*
X0001376771Y0003511417D01*
X0001376771Y0003511417D02*
X0001376771Y0002609055D01*
G04 next file*
G04 Gerber Fmt 4.6, Leading zero omitted, Abs format (unit mm)*
G04 Created by KiCad (PCBNEW (6.0.9)) date 2023-10-16 16:07:20*
G01*
G04 APERTURE LIST*
G04 APERTURE END LIST*
D27*
X0002647244Y0001803149D02*
X0002673622Y0001803149D01*
X0002647244Y0001905511D02*
X0002647244Y0001803149D01*
X0002675196Y0001905511D02*
X0002647244Y0001905511D01*
G36*
X0003301960Y0002121174D02*
G01*
X0003257272Y0002133206D01*
X0003257272Y0002133518D01*
X0003301960Y0002145549D01*
X0003301960Y0002121174D01*
G37*
G36*
X0003328210Y0001389456D02*
G01*
X0003326882Y0001380042D01*
X0003324147Y0001373049D01*
X0003319636Y0001368108D01*
X0003312976Y0001364846D01*
X0003303698Y0001363030D01*
X0003291335Y0001362424D01*
X0003279636Y0001363010D01*
X0003270788Y0001364768D01*
X0003264343Y0001367913D01*
X0003259851Y0001372659D01*
X0003256940Y0001379358D01*
X0003255241Y0001388362D01*
X0003254655Y0001395706D01*
X0003254460Y0001401799D01*
X0003327741Y0001401799D01*
X0003328210Y0001389456D01*
G37*
G36*
X0003304206Y0001779436D02*
G01*
X0003313757Y0001777971D01*
X0003320515Y0001775354D01*
X0003325007Y0001771409D01*
X0003327526Y0001765842D01*
X0003328366Y0001758362D01*
X0003327526Y0001750901D01*
X0003325007Y0001745393D01*
X0003320515Y0001741506D01*
X0003313757Y0001738909D01*
X0003304206Y0001737444D01*
X0003291335Y0001736956D01*
X0003278073Y0001737444D01*
X0003268288Y0001738909D01*
X0003261413Y0001741506D01*
X0003256882Y0001745393D01*
X0003254362Y0001750901D01*
X0003253522Y0001758362D01*
X0003254362Y0001765842D01*
X0003256882Y0001771409D01*
X0003261433Y0001775354D01*
X0003268366Y0001777971D01*
X0003278171Y0001779436D01*
X0003291335Y0001779924D01*
X0003304206Y0001779436D01*
G37*
G36*
X0003203783Y0001309716D02*
G01*
X0003203783Y0001403674D01*
X0003237272Y0001403674D01*
X0003237468Y0001395237D01*
X0003238054Y0001387737D01*
X0003239616Y0001376756D01*
X0003242012Y0001367563D01*
X0003245241Y0001360159D01*
X0003252097Y0001351819D01*
X0003261726Y0001346331D01*
X0003270033Y0001344074D01*
X0003280267Y0001342720D01*
X0003292429Y0001342268D01*
X0003305146Y0001342789D01*
X0003315797Y0001344352D01*
X0003324382Y0001346956D01*
X0003334089Y0001353245D01*
X0003340554Y0001362737D01*
X0003343245Y0001371157D01*
X0003344859Y0001381626D01*
X0003345397Y0001394143D01*
X0003345259Y0001402355D01*
X0003344842Y0001411574D01*
X0003344147Y0001421799D01*
X0003237897Y0001421799D01*
X0003237429Y0001412268D01*
X0003237272Y0001403674D01*
X0003203783Y0001403674D01*
X0003203783Y0001431331D01*
X0003237897Y0001431331D01*
X0003344147Y0001443987D01*
X0003344147Y0001464768D01*
X0003251647Y0001476799D01*
X0003251647Y0001477424D01*
X0003344147Y0001489612D01*
X0003344147Y0001510237D01*
X0003237897Y0001522893D01*
X0003237897Y0001505706D01*
X0003321491Y0001499612D01*
X0003321491Y0001499456D01*
X0003302116Y0001498362D01*
X0003237897Y0001488362D01*
X0003237897Y0001465862D01*
X0003302116Y0001456174D01*
X0003321491Y0001454924D01*
X0003321491Y0001454768D01*
X0003237897Y0001448518D01*
X0003237897Y0001431331D01*
X0003203783Y0001431331D01*
X0003203783Y0001571174D01*
X0003236335Y0001571174D01*
X0003236999Y0001557874D01*
X0003238991Y0001547971D01*
X0003242585Y0001540921D01*
X0003248054Y0001536174D01*
X0003255827Y0001533518D01*
X0003266335Y0001532737D01*
X0003266335Y0001552581D01*
X0003258444Y0001554846D01*
X0003254538Y0001560628D01*
X0003253366Y0001571799D01*
X0003254460Y0001583284D01*
X0003258054Y0001588987D01*
X0003265397Y0001590706D01*
X0003273444Y0001584690D01*
X0003277292Y0001576311D01*
X0003281804Y0001563206D01*
X0003285905Y0001551858D01*
X0003290085Y0001543440D01*
X0003294753Y0001537483D01*
X0003300319Y0001533518D01*
X0003307175Y0001531292D01*
X0003315710Y0001530549D01*
X0003326101Y0001531448D01*
X0003333835Y0001534143D01*
X0003339304Y0001538967D01*
X0003342897Y0001546253D01*
X0003344890Y0001556585D01*
X0003345554Y0001570549D01*
X0003344812Y0001584944D01*
X0003342585Y0001595628D01*
X0003338562Y0001603147D01*
X0003332429Y0001608049D01*
X0003323757Y0001610628D01*
X0003312116Y0001611174D01*
X0003312116Y0001591643D01*
X0003322194Y0001589143D01*
X0003327116Y0001582503D01*
X0003328171Y0001576897D01*
X0003328522Y0001569299D01*
X0003327429Y0001557659D01*
X0003323601Y0001551799D01*
X0003315866Y0001550081D01*
X0003307897Y0001552581D01*
X0003301882Y0001560784D01*
X0003299050Y0001567678D01*
X0003296022Y0001576956D01*
X0003292097Y0001588577D01*
X0003288132Y0001597190D01*
X0003283776Y0001603264D01*
X0003278679Y0001607268D01*
X0003272468Y0001609495D01*
X0003264772Y0001610237D01*
X0003254929Y0001609358D01*
X0003247585Y0001606721D01*
X0003242370Y0001601995D01*
X0003238913Y0001594846D01*
X0003236980Y0001584749D01*
X0003236335Y0001571174D01*
X0003203783Y0001571174D01*
X0003203783Y0001758362D01*
X0003236335Y0001758362D01*
X0003236882Y0001748353D01*
X0003238522Y0001739994D01*
X0003241257Y0001733284D01*
X0003247878Y0001725745D01*
X0003257897Y0001720784D01*
X0003266821Y0001718744D01*
X0003277967Y0001717520D01*
X0003291335Y0001717112D01*
X0003304512Y0001717520D01*
X0003315502Y0001718744D01*
X0003324304Y0001720784D01*
X0003334187Y0001725745D01*
X0003340710Y0001733284D01*
X0003343401Y0001739994D01*
X0003345016Y0001748353D01*
X0003345554Y0001758362D01*
X0003345016Y0001768371D01*
X0003343401Y0001776730D01*
X0003340710Y0001783440D01*
X0003334187Y0001790979D01*
X0003324304Y0001795940D01*
X0003315502Y0001797980D01*
X0003304512Y0001799204D01*
X0003291335Y0001799612D01*
X0003277967Y0001799204D01*
X0003266821Y0001797980D01*
X0003257897Y0001795940D01*
X0003247878Y0001790979D01*
X0003241257Y0001783440D01*
X0003238522Y0001776730D01*
X0003236882Y0001768371D01*
X0003236335Y0001758362D01*
X0003203783Y0001758362D01*
X0003203783Y0001813674D01*
X0003237897Y0001813674D01*
X0003255710Y0001813674D01*
X0003255710Y0001842112D01*
X0003344147Y0001842112D01*
X0003344147Y0001862112D01*
X0003255710Y0001862112D01*
X0003255710Y0001890549D01*
X0003237897Y0001890549D01*
X0003237897Y0001813674D01*
X0003203783Y0001813674D01*
X0003203783Y0002038362D01*
X0003236335Y0002038362D01*
X0003237038Y0002025432D01*
X0003239147Y0002015706D01*
X0003242897Y0002008694D01*
X0003248522Y0002003909D01*
X0003256491Y0002000999D01*
X0003267272Y0001999612D01*
X0003267272Y0002018987D01*
X0003258913Y0002021331D01*
X0003254772Y0002027190D01*
X0003253522Y0002038206D01*
X0003254382Y0002045823D01*
X0003256960Y0002051487D01*
X0003261569Y0002055491D01*
X0003268522Y0002058128D01*
X0003278327Y0002059592D01*
X0003291491Y0002060081D01*
X0003304362Y0002059534D01*
X0003313913Y0002057893D01*
X0003320651Y0002054983D01*
X0003325085Y0002050628D01*
X0003327546Y0002044475D01*
X0003328366Y0002036174D01*
X0003327663Y0002026565D01*
X0003325241Y0002018831D01*
X0003301335Y0002018831D01*
X0003301335Y0002040862D01*
X0003284304Y0002040862D01*
X0003284304Y0001999924D01*
X0003337272Y0001999924D01*
X0003341335Y0002009651D01*
X0003343835Y0002017893D01*
X0003345124Y0002026096D01*
X0003345554Y0002035706D01*
X0003345007Y0002046383D01*
X0003343366Y0002055289D01*
X0003340632Y0002062424D01*
X0003334030Y0002070452D01*
X0003324069Y0002075784D01*
X0003315224Y0002077997D01*
X0003304208Y0002079325D01*
X0003291022Y0002079768D01*
X0003277750Y0002079352D01*
X0003266682Y0002078102D01*
X0003257819Y0002076018D01*
X0003247858Y0002070999D01*
X0003241257Y0002063440D01*
X0003238522Y0002056730D01*
X0003236882Y0002048371D01*
X0003236335Y0002038362D01*
X0003203783Y0002038362D01*
X0003203783Y0002120706D01*
X0003237897Y0002120706D01*
X0003344147Y0002088987D01*
X0003344147Y0002108831D01*
X0003318679Y0002116487D01*
X0003318679Y0002150237D01*
X0003344147Y0002157893D01*
X0003344147Y0002177737D01*
X0003237897Y0002146018D01*
X0003237897Y0002120706D01*
X0003203783Y0002120706D01*
X0003203783Y0002188674D01*
X0003237897Y0002188674D01*
X0003255710Y0002188674D01*
X0003255710Y0002217112D01*
X0003344147Y0002217112D01*
X0003344147Y0002237112D01*
X0003255710Y0002237112D01*
X0003255710Y0002265549D01*
X0003237897Y0002265549D01*
X0003237897Y0002188674D01*
X0003203783Y0002188674D01*
X0003203783Y0002287268D01*
X0003237897Y0002287268D01*
X0003312585Y0002287268D01*
X0003324069Y0002288069D01*
X0003332585Y0002290471D01*
X0003338601Y0002294788D01*
X0003342585Y0002301331D01*
X0003344812Y0002310589D01*
X0003345554Y0002323049D01*
X0003344812Y0002335608D01*
X0003342585Y0002344846D01*
X0003338640Y0002351292D01*
X0003332741Y0002355471D01*
X0003324460Y0002357639D01*
X0003313366Y0002358049D01*
X0003313366Y0002338049D01*
X0003325007Y0002335081D01*
X0003328210Y0002323518D01*
X0003326726Y0002313596D01*
X0003321804Y0002308596D01*
X0003311960Y0002307112D01*
X0003237897Y0002307112D01*
X0003237897Y0002287268D01*
X0003203783Y0002287268D01*
X0003203783Y0002391070D01*
X0003378106Y0002391070D01*
X0003378106Y0001309716D01*
X0003203783Y0001309716D01*
G37*
X0002728346Y0002353937D02*
X0002675984Y0002353937D01*
X0002778346Y0002353937D02*
X0002778346Y0002251574D01*
X0002880708Y0002353937D02*
X0002778346Y0002353937D01*
X0002880708Y0001349212D02*
X0002675984Y0001349212D01*
X0002880708Y0002353937D02*
X0002880708Y0001349212D01*
X0002675984Y0002353937D02*
X0002675984Y0002301574D01*
X0002778346Y0002251574D02*
X0002675984Y0002251574D01*
X0002675984Y0002251574D02*
X0002675984Y0001349212D01*
G04 next file*
G04 Gerber Fmt 4.6, Leading zero omitted, Abs format (unit mm)*
G04 Created by KiCad (PCBNEW (6.0.9)) date 2023-10-16 16:07:20*
G01*
G04 APERTURE LIST*
G04 APERTURE END LIST*
D28*
X0002647244Y0003062992D02*
X0002673622Y0003062992D01*
X0002647244Y0003165354D02*
X0002647244Y0003062992D01*
X0002675196Y0003165354D02*
X0002647244Y0003165354D01*
G36*
X0003301960Y0003381017D02*
G01*
X0003257272Y0003393048D01*
X0003257272Y0003393361D01*
X0003301960Y0003405392D01*
X0003301960Y0003381017D01*
G37*
G36*
X0003328210Y0002649298D02*
G01*
X0003326882Y0002639884D01*
X0003324147Y0002632892D01*
X0003319636Y0002627951D01*
X0003312976Y0002624689D01*
X0003303698Y0002622872D01*
X0003291335Y0002622267D01*
X0003279636Y0002622853D01*
X0003270788Y0002624611D01*
X0003264343Y0002627755D01*
X0003259851Y0002632501D01*
X0003256940Y0002639201D01*
X0003255241Y0002648204D01*
X0003254655Y0002655548D01*
X0003254460Y0002661642D01*
X0003327741Y0002661642D01*
X0003328210Y0002649298D01*
G37*
G36*
X0003304206Y0003039279D02*
G01*
X0003313757Y0003037814D01*
X0003320515Y0003035197D01*
X0003325007Y0003031251D01*
X0003327526Y0003025685D01*
X0003328366Y0003018204D01*
X0003327526Y0003010744D01*
X0003325007Y0003005236D01*
X0003320515Y0003001349D01*
X0003313757Y0002998751D01*
X0003304206Y0002997287D01*
X0003291335Y0002996798D01*
X0003278073Y0002997287D01*
X0003268288Y0002998751D01*
X0003261413Y0003001349D01*
X0003256882Y0003005236D01*
X0003254362Y0003010744D01*
X0003253522Y0003018204D01*
X0003254362Y0003025685D01*
X0003256882Y0003031251D01*
X0003261433Y0003035197D01*
X0003268366Y0003037814D01*
X0003278171Y0003039279D01*
X0003291335Y0003039767D01*
X0003304206Y0003039279D01*
G37*
G36*
X0003203783Y0002569559D02*
G01*
X0003203783Y0002663517D01*
X0003237272Y0002663517D01*
X0003237468Y0002655079D01*
X0003238054Y0002647579D01*
X0003239616Y0002636599D01*
X0003242012Y0002627406D01*
X0003245241Y0002620001D01*
X0003252097Y0002611661D01*
X0003261726Y0002606173D01*
X0003270033Y0002603916D01*
X0003280267Y0002602562D01*
X0003292429Y0002602111D01*
X0003305146Y0002602632D01*
X0003315797Y0002604194D01*
X0003324382Y0002606798D01*
X0003334089Y0002613087D01*
X0003340554Y0002622579D01*
X0003343245Y0002631000D01*
X0003344859Y0002641468D01*
X0003345397Y0002653986D01*
X0003345259Y0002662198D01*
X0003344842Y0002671416D01*
X0003344147Y0002681642D01*
X0003237897Y0002681642D01*
X0003237429Y0002672111D01*
X0003237272Y0002663517D01*
X0003203783Y0002663517D01*
X0003203783Y0002691173D01*
X0003237897Y0002691173D01*
X0003344147Y0002703829D01*
X0003344147Y0002724611D01*
X0003251647Y0002736642D01*
X0003251647Y0002737267D01*
X0003344147Y0002749454D01*
X0003344147Y0002770079D01*
X0003237897Y0002782736D01*
X0003237897Y0002765548D01*
X0003321491Y0002759454D01*
X0003321491Y0002759298D01*
X0003302116Y0002758204D01*
X0003237897Y0002748204D01*
X0003237897Y0002725704D01*
X0003302116Y0002716017D01*
X0003321491Y0002714767D01*
X0003321491Y0002714611D01*
X0003237897Y0002708361D01*
X0003237897Y0002691173D01*
X0003203783Y0002691173D01*
X0003203783Y0002831017D01*
X0003236335Y0002831017D01*
X0003236999Y0002817716D01*
X0003238991Y0002807814D01*
X0003242585Y0002800763D01*
X0003248054Y0002796017D01*
X0003255827Y0002793361D01*
X0003266335Y0002792579D01*
X0003266335Y0002812423D01*
X0003258444Y0002814689D01*
X0003254538Y0002820470D01*
X0003253366Y0002831642D01*
X0003254460Y0002843126D01*
X0003258054Y0002848829D01*
X0003265397Y0002850548D01*
X0003273444Y0002844533D01*
X0003277292Y0002836154D01*
X0003281804Y0002823048D01*
X0003285905Y0002811701D01*
X0003290085Y0002803283D01*
X0003294753Y0002797326D01*
X0003300319Y0002793361D01*
X0003307175Y0002791134D01*
X0003315710Y0002790392D01*
X0003326101Y0002791290D01*
X0003333835Y0002793986D01*
X0003339304Y0002798810D01*
X0003342897Y0002806095D01*
X0003344890Y0002816427D01*
X0003345554Y0002830392D01*
X0003344812Y0002844787D01*
X0003342585Y0002855470D01*
X0003338562Y0002862990D01*
X0003332429Y0002867892D01*
X0003323757Y0002870470D01*
X0003312116Y0002871017D01*
X0003312116Y0002851486D01*
X0003322194Y0002848986D01*
X0003327116Y0002842345D01*
X0003328171Y0002836740D01*
X0003328522Y0002829142D01*
X0003327429Y0002817501D01*
X0003323601Y0002811642D01*
X0003315866Y0002809923D01*
X0003307897Y0002812423D01*
X0003301882Y0002820626D01*
X0003299050Y0002827521D01*
X0003296022Y0002836798D01*
X0003292097Y0002848419D01*
X0003288132Y0002857033D01*
X0003283776Y0002863107D01*
X0003278679Y0002867111D01*
X0003272468Y0002869337D01*
X0003264772Y0002870079D01*
X0003254929Y0002869201D01*
X0003247585Y0002866564D01*
X0003242370Y0002861837D01*
X0003238913Y0002854689D01*
X0003236980Y0002844591D01*
X0003236335Y0002831017D01*
X0003203783Y0002831017D01*
X0003203783Y0003018204D01*
X0003236335Y0003018204D01*
X0003236882Y0003008196D01*
X0003238522Y0002999836D01*
X0003241257Y0002993126D01*
X0003247878Y0002985587D01*
X0003257897Y0002980626D01*
X0003266821Y0002978586D01*
X0003277967Y0002977362D01*
X0003291335Y0002976954D01*
X0003304512Y0002977362D01*
X0003315502Y0002978586D01*
X0003324304Y0002980626D01*
X0003334187Y0002985587D01*
X0003340710Y0002993126D01*
X0003343401Y0002999836D01*
X0003345016Y0003008196D01*
X0003345554Y0003018204D01*
X0003345016Y0003028213D01*
X0003343401Y0003036573D01*
X0003340710Y0003043283D01*
X0003334187Y0003050822D01*
X0003324304Y0003055783D01*
X0003315502Y0003057823D01*
X0003304512Y0003059046D01*
X0003291335Y0003059454D01*
X0003277967Y0003059046D01*
X0003266821Y0003057823D01*
X0003257897Y0003055783D01*
X0003247878Y0003050822D01*
X0003241257Y0003043283D01*
X0003238522Y0003036573D01*
X0003236882Y0003028213D01*
X0003236335Y0003018204D01*
X0003203783Y0003018204D01*
X0003203783Y0003073517D01*
X0003237897Y0003073517D01*
X0003255710Y0003073517D01*
X0003255710Y0003101954D01*
X0003344147Y0003101954D01*
X0003344147Y0003121954D01*
X0003255710Y0003121954D01*
X0003255710Y0003150392D01*
X0003237897Y0003150392D01*
X0003237897Y0003073517D01*
X0003203783Y0003073517D01*
X0003203783Y0003298204D01*
X0003236335Y0003298204D01*
X0003237038Y0003285275D01*
X0003239147Y0003275548D01*
X0003242897Y0003268537D01*
X0003248522Y0003263751D01*
X0003256491Y0003260841D01*
X0003267272Y0003259454D01*
X0003267272Y0003278829D01*
X0003258913Y0003281173D01*
X0003254772Y0003287033D01*
X0003253522Y0003298048D01*
X0003254382Y0003305665D01*
X0003256960Y0003311329D01*
X0003261569Y0003315333D01*
X0003268522Y0003317970D01*
X0003278327Y0003319435D01*
X0003291491Y0003319923D01*
X0003304362Y0003319376D01*
X0003313913Y0003317736D01*
X0003320651Y0003314826D01*
X0003325085Y0003310470D01*
X0003327546Y0003304318D01*
X0003328366Y0003296017D01*
X0003327663Y0003286408D01*
X0003325241Y0003278673D01*
X0003301335Y0003278673D01*
X0003301335Y0003300704D01*
X0003284304Y0003300704D01*
X0003284304Y0003259767D01*
X0003337272Y0003259767D01*
X0003341335Y0003269494D01*
X0003343835Y0003277736D01*
X0003345124Y0003285939D01*
X0003345554Y0003295548D01*
X0003345007Y0003306225D01*
X0003343366Y0003315132D01*
X0003340632Y0003322267D01*
X0003334030Y0003330294D01*
X0003324069Y0003335626D01*
X0003315224Y0003337840D01*
X0003304208Y0003339168D01*
X0003291022Y0003339611D01*
X0003277750Y0003339194D01*
X0003266682Y0003337944D01*
X0003257819Y0003335861D01*
X0003247858Y0003330841D01*
X0003241257Y0003323283D01*
X0003238522Y0003316573D01*
X0003236882Y0003308213D01*
X0003236335Y0003298204D01*
X0003203783Y0003298204D01*
X0003203783Y0003380548D01*
X0003237897Y0003380548D01*
X0003344147Y0003348829D01*
X0003344147Y0003368673D01*
X0003318679Y0003376329D01*
X0003318679Y0003410079D01*
X0003344147Y0003417736D01*
X0003344147Y0003437579D01*
X0003237897Y0003405861D01*
X0003237897Y0003380548D01*
X0003203783Y0003380548D01*
X0003203783Y0003448517D01*
X0003237897Y0003448517D01*
X0003255710Y0003448517D01*
X0003255710Y0003476954D01*
X0003344147Y0003476954D01*
X0003344147Y0003496954D01*
X0003255710Y0003496954D01*
X0003255710Y0003525392D01*
X0003237897Y0003525392D01*
X0003237897Y0003448517D01*
X0003203783Y0003448517D01*
X0003203783Y0003547111D01*
X0003237897Y0003547111D01*
X0003312585Y0003547111D01*
X0003324069Y0003547912D01*
X0003332585Y0003550314D01*
X0003338601Y0003554630D01*
X0003342585Y0003561173D01*
X0003344812Y0003570431D01*
X0003345554Y0003582892D01*
X0003344812Y0003595451D01*
X0003342585Y0003604689D01*
X0003338640Y0003611134D01*
X0003332741Y0003615314D01*
X0003324460Y0003617482D01*
X0003313366Y0003617892D01*
X0003313366Y0003597892D01*
X0003325007Y0003594923D01*
X0003328210Y0003583361D01*
X0003326726Y0003573439D01*
X0003321804Y0003568439D01*
X0003311960Y0003566954D01*
X0003237897Y0003566954D01*
X0003237897Y0003547111D01*
X0003203783Y0003547111D01*
X0003203783Y0003650913D01*
X0003378106Y0003650913D01*
X0003378106Y0002569559D01*
X0003203783Y0002569559D01*
G37*
X0002728346Y0003613779D02*
X0002675984Y0003613779D01*
X0002778346Y0003613779D02*
X0002778346Y0003511417D01*
X0002880708Y0003613779D02*
X0002778346Y0003613779D01*
X0002880708Y0002609055D02*
X0002675984Y0002609055D01*
X0002880708Y0003613779D02*
X0002880708Y0002609055D01*
X0002675984Y0003613779D02*
X0002675984Y0003561417D01*
X0002778346Y0003511417D02*
X0002675984Y0003511417D01*
X0002675984Y0003511417D02*
X0002675984Y0002609055D01*
M02*